<svg xmlns="http://www.w3.org/2000/svg" viewBox="0 0 8.75 4.98"><defs><style>.cls-1{fill:#f7f7f8;}</style></defs><g id="Capa_2" data-name="Capa 2"><g id="CAJAS_DE_TEXTO" data-name="CAJAS DE TEXTO"><g id="JAftUF"><path class="cls-1" d="M4.39,3.51l.27-.29,1-1,1-1c.33-.33.66-.67,1-1A.61.61,0,0,1,8.61,1l-.43.44-.51.51-.57.57L6.6,3l-.49.49c-.17.17-.34.33-.5.5L5,4.59l-.25.24a.6.6,0,0,1-.79,0l-.62-.61-.58-.57-.57-.58c-.22-.22-.44-.43-.65-.65S1.18,2,1,1.84L.41,1.27A3.31,3.31,0,0,1,.15,1,.57.57,0,0,1,.09.3.61.61,0,0,1,.7,0a.64.64,0,0,1,.38.2L2.45,1.58,3.78,2.91l.55.56Z"/></g></g></g></svg>