<svg id="Capa_1" data-name="Capa 1"
  xmlns="http://www.w3.org/2000/svg" viewBox="0 0 29.5 29.5">
  <defs>
    <style>.cls-1{fill:#f7f7f8;}</style>
  </defs>
  <title>sol</title>
  <g id="fG7rJb.tif">
    <path class="cls-1" d="M7,14.75a7.78,7.78,0,1,1,7.77,7.79A7.8,7.8,0,0,1,7,14.75Zm7.8-5.56a5.57,5.57,0,1,0,5.55,5.58A5.56,5.56,0,0,0,14.76,9.18Z"/>
    <path class="cls-1" d="M27,15.86H25.9a1.11,1.11,0,1,1,0-2.21h2.17a1.11,1.11,0,1,1,0,2.21Z"/>
    <path class="cls-1" d="M13.64,27c0-.36,0-.73,0-1.09a1.11,1.11,0,1,1,2.21,0q0,1.09,0,2.19a1.11,1.11,0,1,1-2.21,0C13.64,27.72,13.64,27.36,13.64,27Z"/>
    <path class="cls-1" d="M13.64,2.51c0-.36,0-.73,0-1.09a1.11,1.11,0,1,1,2.21,0q0,1.1,0,2.2a1.11,1.11,0,1,1-2.21,0C13.64,3.25,13.64,2.88,13.64,2.51Z"/>
    <path class="cls-1" d="M2.51,15.86H1.42a1.11,1.11,0,1,1,0-2.21h2.2a1.11,1.11,0,1,1,0,2.21Z"/>
    <path class="cls-1" d="M8,22.61a1.15,1.15,0,0,1-.32.77c-.53.54-1.07,1.08-1.61,1.61a1.1,1.1,0,0,1-1.56-1.56c.53-.55,1.07-1.09,1.62-1.62a1,1,0,0,1,1.17-.22A1.11,1.11,0,0,1,8,22.61Z"/>
    <path class="cls-1" d="M8,6.89a1.11,1.11,0,0,1-.68,1A1,1,0,0,1,6.15,7.7Q5.3,6.89,4.48,6A1.1,1.1,0,0,1,6,4.48C6.61,5,7.15,5.59,7.71,6.15A1.12,1.12,0,0,1,8,6.89Z"/>
    <path class="cls-1" d="M22.6,8a1.11,1.11,0,0,1-1-.68,1,1,0,0,1,.19-1.16c.54-.57,1.1-1.13,1.67-1.67A1.1,1.1,0,0,1,25,6c-.55.58-1.13,1.14-1.7,1.71A1.08,1.08,0,0,1,22.6,8Z"/>
    <path class="cls-1" d="M22.61,21.5a1.15,1.15,0,0,1,.76.31c.54.53,1.08,1.07,1.61,1.61A1.1,1.1,0,0,1,23.42,25q-.81-.79-1.61-1.61a1.07,1.07,0,0,1-.22-1.19A1.12,1.12,0,0,1,22.61,21.5Z"/>
  </g>
</svg>