<?xml version="1.0" encoding="utf-8"?>
<!-- Generator: Adobe Illustrator 25.0.1, SVG Export Plug-In . SVG Version: 6.00 Build 0)  -->
<svg version="1.1" id="Capa_1" xmlns="http://www.w3.org/2000/svg" xmlns:xlink="http://www.w3.org/1999/xlink" x="0px" y="0px"
	 viewBox="0 0 56.7 56.7" style="enable-background:new 0 0 56.7 56.7;" xml:space="preserve">
<style type="text/css">
	.st0{fill:#F7F7F8;}
</style>
<g id="Capa_2_2_">
	<g id="MONEDAS">
		<path class="st0" d="M21.4,36.6C11.3,36.5,3.1,28.3,3.2,18.2S11.5-0.1,21.6,0c10,0.1,18.1,8.2,18.2,18.2
			c0.1,10.1-8.1,18.3-18.2,18.4C21.5,36.6,21.5,36.6,21.4,36.6z M21.4,6.7C15,6.7,9.8,11.9,9.8,18.3c0,6.4,5.2,11.6,11.6,11.6
			c6.4,0,11.6-5.2,11.6-11.6c0,0,0-0.1,0-0.1c0-6.4-5.2-11.6-11.6-11.6V6.7z"/>
		<path class="st0" d="M50.1,56.7c-1,0-1.9-0.4-2.5-1.2L35.3,41.4c-1.2-1.4-1.1-3.5,0.3-4.7c0,0,0.1-0.1,0.1-0.1
			c1.4-1.2,3.5-1.1,4.7,0.3c0,0,0,0,0,0l12.3,14.3c1.2,1.4,1.1,3.5-0.3,4.7c0,0,0,0,0,0C51.7,56.4,50.9,56.7,50.1,56.7z"/>
	</g>
</g>
</svg>
