<?xml version="1.0" encoding="utf-8"?>
<!-- Generator: Adobe Illustrator 25.0.1, SVG Export Plug-In . SVG Version: 6.00 Build 0)  -->
<svg version="1.1" id="Capa_1"
	xmlns="http://www.w3.org/2000/svg"
	xmlns:xlink="http://www.w3.org/1999/xlink" x="0px" y="0px" viewBox="0 0 125 125" style="enable-background:new 0 0 125 125;" xml:space="preserve">
	<style type="text/css">
	.st0{opacity:0.3;}
	.st1{fill:#E2761B;stroke:#E2761B;stroke-linecap:round;stroke-linejoin:round;}
	.st2{fill:#E4761B;stroke:#E4761B;stroke-linecap:round;stroke-linejoin:round;}
	.st3{fill:#D7C1B3;stroke:#D7C1B3;stroke-linecap:round;stroke-linejoin:round;}
	.st4{fill:#233447;stroke:#233447;stroke-linecap:round;stroke-linejoin:round;}
	.st5{fill:#CD6116;stroke:#CD6116;stroke-linecap:round;stroke-linejoin:round;}
	.st6{fill:#E4751F;stroke:#E4751F;stroke-linecap:round;stroke-linejoin:round;}
	.st7{fill:#F6851B;stroke:#F6851B;stroke-linecap:round;stroke-linejoin:round;}
	.st8{fill:#C0AD9E;stroke:#C0AD9E;stroke-linecap:round;stroke-linejoin:round;}
	.st9{fill:#161616;stroke:#161616;stroke-linecap:round;stroke-linejoin:round;}
	.st10{fill:#763D16;stroke:#763D16;stroke-linecap:round;stroke-linejoin:round;}
	</style>
	<g id="Capa_2_1_">
		<g id="BOTONES">
			<g class="st0">

				<image style="overflow:visible;enable-background:new    ;" width="129" height="125" xlink:href="3ECE086FCE7657EA.png" transform="matrix(1 0 0 1 -3.4835 0)">
				</image>
			</g>
			<polygon class="st1" points="88,37.4 66.2,53.6 70.3,44 		"/>
			<polygon class="st2" points="37.7,37.4 59.3,53.7 55.5,44 		"/>
			<polygon class="st2" points="80.2,74.9 74.4,83.8 86.8,87.2 90.4,75.1 		"/>
			<polygon class="st2" points="35.4,75.1 38.9,87.2 51.4,83.8 45.6,74.9 		"/>
			<polygon class="st2" points="50.7,59.9 47.2,65.1 59.5,65.7 59.1,52.4 		"/>
			<polygon class="st2" points="75.1,59.9 66.5,52.3 66.2,65.7 78.5,65.1 		"/>
			<polygon class="st2" points="51.4,83.8 58.8,80.2 52.4,75.2 		"/>
			<polygon class="st2" points="66.9,80.2 74.4,83.8 73.3,75.2 		"/>
			<polygon class="st3" points="74.4,83.8 66.9,80.2 67.5,85.1 67.5,87.1 		"/>
			<polygon class="st3" points="51.4,83.8 58.3,87.1 58.2,85.1 58.8,80.2 		"/>
			<polygon class="st4" points="58.4,72 52.2,70.2 56.6,68.2 		"/>
			<polygon class="st4" points="67.3,72 69.2,68.2 73.5,70.2 		"/>
			<polygon class="st5" points="51.4,83.8 52.4,74.9 45.6,75.1 		"/>
			<polygon class="st5" points="73.3,74.9 74.4,83.8 80.2,75.1 		"/>
			<polygon class="st5" points="78.5,65.1 66.2,65.7 67.4,72 69.2,68.2 73.6,70.2 		"/>
			<polygon class="st5" points="52.2,70.2 56.6,68.2 58.4,72 59.5,65.7 47.2,65.1 		"/>
			<polygon class="st6" points="47.2,65.1 52.4,75.2 52.2,70.2 		"/>
			<polygon class="st6" points="73.6,70.2 73.3,75.2 78.5,65.1 		"/>
			<polygon class="st6" points="59.5,65.7 58.4,72 59.8,79.5 60.2,69.7 		"/>
			<polygon class="st6" points="66.2,65.7 65.6,69.6 65.9,79.5 67.4,72 		"/>
			<polygon class="st7" points="67.4,72 65.9,79.5 66.9,80.2 73.3,75.2 73.6,70.2 		"/>
			<polygon class="st7" points="52.2,70.2 52.4,75.2 58.8,80.2 59.8,79.5 58.4,72 		"/>
			<polygon class="st8" points="67.5,87.1 67.5,85.1 67,84.6 58.7,84.6 58.2,85.1 58.3,87.1 51.4,83.8 53.8,85.8 58.7,89.2 
			67.1,89.2 72,85.8 74.4,83.8 		"/>
			<polygon class="st9" points="66.9,80.2 65.9,79.5 59.8,79.5 58.8,80.2 58.2,85.1 58.7,84.6 67,84.6 67.5,85.1 		"/>
			<polygon class="st10" points="89,54.6 90.8,45.7 88,37.4 66.9,53 75.1,59.9 86.5,63.2 89.1,60.3 88,59.5 89.7,57.9 88.4,56.8 
			90.1,55.5 		"/>
			<polygon class="st10" points="34.9,45.7 36.8,54.6 35.6,55.5 37.4,56.8 36,57.9 37.8,59.5 36.7,60.3 39.2,63.2 50.7,59.9 58.8,53 
			37.7,37.4 		"/>
			<polygon class="st7" points="86.5,63.2 75.1,59.9 78.5,65.1 73.3,75.2 80.2,75.1 90.4,75.1 		"/>
			<polygon class="st7" points="50.7,59.9 39.2,63.2 35.4,75.1 45.6,75.1 52.4,75.2 47.2,65.1 		"/>
			<polygon class="st7" points="66.2,65.7 66.9,53 70.3,44 55.5,44 58.8,53 59.5,65.7 59.8,69.7 59.8,79.5 65.9,79.5 65.9,69.7 		"/>
		</g>
	</g>
</svg>
