<svg xmlns="http://www.w3.org/2000/svg" viewBox="0 0 9.45 10.37"><defs><style>.cls-1{fill:#ed1c24;}.cls-2{fill:none;stroke:#ed1c24;stroke-linecap:round;stroke-linejoin:round;stroke-width:1.3px;}</style></defs><g id="Capa_2" data-name="Capa 2"><g id="TEXTOS"><g id="JAftUF"><path class="cls-1" d="M4.74,8.78c.1-.1.19-.21.3-.31L6.16,7.35,7.28,6.22c.36-.36.72-.72,1.09-1.07a.65.65,0,0,1,.93.91c-.14.16-.31.32-.46.48l-.55.54-.62.62-.54.54-.52.53-.55.54-.64.63-.27.27a.64.64,0,0,1-.85,0l-.67-.66L3,8.93l-.62-.62L1.68,7.6c-.21-.2-.41-.41-.62-.62S.65,6.57.45,6.37l-.29-.3A.62.62,0,0,1,.1,5.32.64.64,0,0,1,.76,5a.68.68,0,0,1,.4.21L2.64,6.69,4.08,8.13l.6.61Z"/></g><line class="cls-2" x1="4.73" y1="0.65" x2="4.73" y2="8.65"/></g></g></svg>