<svg xmlns="http://www.w3.org/2000/svg" viewBox="0 0 9.45 10.37"><defs><style>.cls-1{fill:#009245;}.cls-2{fill:none;stroke:#009245;stroke-linecap:round;stroke-linejoin:round;stroke-width:1.3px;}</style></defs><g id="Capa_2" data-name="Capa 2"><g id="TEXTOS"><g id="JAftUF"><path class="cls-1" d="M4.71,1.59c-.1.1-.19.21-.3.31L3.29,3,2.17,4.15c-.36.36-.72.72-1.09,1.07a.64.64,0,0,1-.88,0,.64.64,0,0,1-.05-.87c.14-.17.31-.33.46-.48l.55-.55.62-.62.54-.54.52-.53.55-.54L4,.43,4.3.16a.65.65,0,0,1,.85,0l.67.66.62.62.62.63.71.7.62.62L9,4l.29.29a.62.62,0,0,1,.06.75.62.62,0,0,1-.66.32.68.68,0,0,1-.4-.21L6.81,3.68,5.37,2.24l-.6-.61Z"/></g><line class="cls-2" x1="4.73" y1="9.72" x2="4.73" y2="1.72"/></g></g></svg>