<svg xmlns="http://www.w3.org/2000/svg" viewBox="0 0 8.53 6.38"><defs><style>.cls-1{fill:#f7f7f8;}</style></defs><g id="Capa_2" data-name="Capa 2"><g id="TEXTOS"><g id="RRZDGt"><path class="cls-1" d="M8.53,3.88c0,.07,0,.14,0,.2a1.62,1.62,0,0,1-1.6,1.24H2.13V6.38L0,4.79,2.12,3.2V4.26H6.87a.53.53,0,0,0,.57-.41l0-.12H8.53Z"/><path class="cls-1" d="M0,2.5c0-.06,0-.13,0-.2A1.56,1.56,0,0,1,.91,1.22a1.57,1.57,0,0,1,.74-.16H6.4V0L8.53,1.59,6.4,3.19V2.13H1.66a.55.55,0,0,0-.58.41s0,.08,0,.12H0Z"/></g></g></g></svg>