<?xml version="1.0" encoding="utf-8"?>
<!-- Generator: Adobe Illustrator 25.0.1, SVG Export Plug-In . SVG Version: 6.00 Build 0)  -->
<svg version="1.1" id="Capa_1"
	xmlns="http://www.w3.org/2000/svg"
	xmlns:xlink="http://www.w3.org/1999/xlink" x="0px" y="0px" viewBox="0 0 125 125" style="enable-background:new 0 0 125 125;" xml:space="preserve">
	<style type="text/css">
	.st0{opacity:0.3;}
	.st1{fill:#3B99FC;}
	</style>
	<g id="Capa_2_1_">
		<g id="BOTONES">
			<g id="Page-1" class="st0">

				<image style="overflow:visible;enable-background:new    ;" width="136" height="112" xlink:href="EAD11E3FF9D56B31.png" transform="matrix(1 0 0 1 -5.5 6.5)">
				</image>
			</g>
			<g id="Page-1-2">
				<g id="walletconnect-logo-alt">
					<path id="WalletConnect" class="st1" d="M44,50.6c10.4-10.1,26.9-10.1,37.3,0l1.2,1.2c0.5,0.5,0.5,1.3,0,1.8c0,0,0,0,0,0
					l-4.2,4.2c-0.3,0.3-0.7,0.3-0.9,0l-1.7-1.7c-7.2-7-18.8-7-26,0L47.8,58c-0.3,0.3-0.7,0.3-0.9,0l-4.2-4.2c-0.5-0.5-0.5-1.3,0-1.8
					c0,0,0,0,0,0L44,50.6z M90.1,59.2l3.8,3.7c0.5,0.5,0.5,1.3,0,1.8c0,0,0,0,0,0l-17,16.7c-0.5,0.5-1.3,0.5-1.9,0l0,0L62.9,69.6
					c-0.1-0.1-0.3-0.1-0.5,0c0,0,0,0,0,0l0,0L50.3,81.4c-0.5,0.5-1.3,0.5-1.9,0l0,0l-17-16.7c-0.5-0.5-0.5-1.3,0-1.8c0,0,0,0,0,0
					l3.8-3.7c0.5-0.5,1.3-0.5,1.9,0l12,11.9c0.1,0.1,0.3,0.1,0.5,0c0,0,0,0,0,0l0,0l12.1-11.8c0.5-0.5,1.3-0.5,1.9,0l0,0l12.1,11.8
					c0.1,0.1,0.3,0.1,0.5,0c0,0,0,0,0,0l12.1-11.8C88.7,58.7,89.6,58.7,90.1,59.2z"/>
				</g>
			</g>
		</g>
	</g>
</svg>
