<svg xmlns="http://www.w3.org/2000/svg" viewBox="0 0 19.62 24.63"><defs><style>.cls-1{fill:#0b3953;}.cls-2{fill:#e3eaed;}.cls-3{fill:#55a2c9;}.cls-4{fill:#e41d40;}.cls-5{fill:#9da6ab;}.cls-6{fill:#fdfdfe;}</style></defs><g id="Capa_2" data-name="Capa 2"><g id="MONEDAS"><g id="ecuq6c.tif"><path class="cls-1" d="M0,19.07V17.48a1.6,1.6,0,0,0,.11-.57,13.82,13.82,0,0,1,1.5-4.37c.07-.13.07-.18-.08-.25A2.83,2.83,0,0,1,0,11v-.31c.05,0,0-.06.05-.09a1.3,1.3,0,0,1,.39-.88.31.31,0,0,0,.08-.13,11.1,11.1,0,0,0,.58-2.1A2.7,2.7,0,0,0,.91,6.32a.89.89,0,0,1,0-.64c.15-.32.28-.66.43-1a.38.38,0,0,0,0-.33C1,3.46.59,2.55.2,1.64l0,0,1.18,1.1a5,5,0,0,1,.09-1A1.9,1.9,0,0,1,2.33.44c.12-.07.18-.08.17.1s0,.55,0,.83A2.29,2.29,0,0,1,3.92.13,1.62,1.62,0,0,0,4.33,0h.75c.14.1.34.07.48.2A1.5,1.5,0,0,0,5,.82l.3-.09a3.8,3.8,0,0,1,2-.06A2.06,2.06,0,0,1,8.74,1.89a.66.66,0,0,0,.66.3.5.5,0,0,0,.4-.5.45.45,0,0,0,0-.11c0-.15,0-.15.16-.13a1.07,1.07,0,0,1,.61.38,2.18,2.18,0,0,1,.49,1.31c0,.18.06.23.21.25A1.79,1.79,0,0,0,13,2.86a.51.51,0,0,1,.19.28c.07.52.43.5.83.53A4.68,4.68,0,0,1,17.87,6s0,.12.12.12c.25-.46.41-1,.63-1.44a10.51,10.51,0,0,1-.12,7s0,.05,0,.07l0,0,1-.83h0c.05.17-.05.32-.08.47a11.52,11.52,0,0,1-2.15,4.57L16.44,17v0l1.89-.61c0,.07,0,.1,0,.13-.4.52-.82,1-1.27,1.52A13.78,13.78,0,0,1,12,21.49a11.76,11.76,0,0,0-2.32,1c-.07,0-.16.07-.14.19s-.07.2-.19.25a2,2,0,0,1-.63.16,3.57,3.57,0,0,0-.86.19,7.18,7.18,0,0,1-4.15.3c-.13,0-.15,0-.19.12a1.55,1.55,0,0,1-.74.89H2.69a2.11,2.11,0,0,1-1-1,3.4,3.4,0,0,1-.31-.8,2.08,2.08,0,0,0-.5-1,1,1,0,0,1-.25-.46c-.13-.49-.34-.94-.45-1.43A4.2,4.2,0,0,0,0,19.07ZM16,4.9h0c0-.05,0-.06-.08-.06a.05.05,0,0,0-.06,0,4.34,4.34,0,0,0-2.05-.58c-.22,0-.41,0-.4.28a.64.64,0,0,1-.05.17,1.25,1.25,0,0,1-.47.5c.22.1.31.34.55.36l.48,0a2.85,2.85,0,0,1,2.61,2,6,6,0,0,1,.11,2.92,12.76,12.76,0,0,1-1.7,4.33,17.4,17.4,0,0,1-2.5,3.24A15,15,0,0,1,9.2,20.61c-.11.07-.16.13-.1.27a4.67,4.67,0,0,1,.28.92c0,.16.08.2.22.1a7.7,7.7,0,0,1,1.78-.8,12.52,12.52,0,0,0,4.92-3.18c.06-.06.14-.11.15-.23a5.51,5.51,0,0,1-1.74.21,14.09,14.09,0,0,0,2.2-2.39,10.42,10.42,0,0,0,1.48-2.82,4.61,4.61,0,0,1-1.24.66,10.6,10.6,0,0,0,1.28-6.68,4,4,0,0,1-.53.91l0-.06c0-.06,0-.12-.05-.17a4.17,4.17,0,0,0-1.56-2.29c-.06,0-.11-.13-.2-.1h0A.06.06,0,0,0,16,4.9ZM2.38,4.37l.05,0c0-.1-.17-.4-.31-.45S2,4,1.9,4s-.11.08-.18,0,.19-.15.18-.28a.39.39,0,0,0-.4-.35.12.12,0,0,0,0-.19L1,2.77s0,0,0,0,0,0,0,.06c.36.75.73,1.49,1.07,2.24.1.21.22.22.4.16a.41.41,0,0,0,.2-.12c.35-.26.35-.41,0-.69a1.28,1.28,0,0,1-.23.29c-.1,0-.2.09-.32,0,.14-.08.3-.13.33-.32ZM5.29,9.09h0a4.51,4.51,0,0,1-.54.44,1.44,1.44,0,0,0-.66,1.06c-.07.29-.14.57-.2.86a.6.6,0,0,1-.28.38L3,12.22a4.52,4.52,0,0,1-.47.18.46.46,0,0,0-.33.29,14.46,14.46,0,0,0-1,2.17,8.34,8.34,0,0,0-.47,1.83,3.17,3.17,0,0,0-.12,1,2.74,2.74,0,0,1,1.31-.86.25.25,0,0,0,.14-.2,9.9,9.9,0,0,1,.28-1.07,16,16,0,0,1,3-5.23c.54-.65.54-.65.13-1.4C5.34,8.85,5.36,9,5.29,9.09ZM2.75,10.78l-.06,0a.2.2,0,0,0,0-.08c0-.11.21-.28.1-.33s-.22.13-.27.25a3.61,3.61,0,0,1-.47.89A3.25,3.25,0,0,0,3,11.05c.24-.16.25-.35,0-.58A.87.87,0,0,1,2.75,10.78Zm-2.27,0a1,1,0,0,0,.44.67.24.24,0,0,0,.28.12,1.2,1.2,0,0,0,1-.71c.09-.21.18-.43.29-.64a.45.45,0,0,1,.72-.17c0,.06-.13,0-.17.06s.15.15.22.24c.29.36.26.62-.13.87a7,7,0,0,1-.85.46,1.1,1.1,0,0,0-.39.27.67.67,0,0,0,.46,0,4.07,4.07,0,0,0,.86-.43A1.49,1.49,0,0,0,3.61,10a.48.48,0,0,0-.53-.33,1.45,1.45,0,0,1-.43,0,1.17,1.17,0,0,1,1.14-.12c.08,0,.17.11.24,0a3.2,3.2,0,0,1,.82-.69,1.15,1.15,0,0,0,.45-.61,2.32,2.32,0,0,0,.12-1c.13.2.08.38.16.55a2.77,2.77,0,0,0,0-1.28,1.77,1.77,0,0,1,.26,1.66.4.4,0,0,0,0,.32,7,7,0,0,1,.76,2.69c0,.41,0,.82,0,1.23a1.73,1.73,0,0,1-.37.91,5,5,0,0,0,0-1.44A7,7,0,0,0,5.34,14a9.11,9.11,0,0,0-.28,2.27,4.21,4.21,0,0,1-.26-.93,3.67,3.67,0,0,0-.3.53,1.43,1.43,0,0,1-.69.68,13.19,13.19,0,0,1-1.38.62,5.74,5.74,0,0,0-1.08.54A.85.85,0,0,0,1,18.84a3.21,3.21,0,0,0,.35.66c0,.07.1.12.06.22l-.1,0c-.16-.13-.21-.07-.22.12s0,.64-.07,1a.93.93,0,0,0,.25.75,1.61,1.61,0,0,1,.44.95.22.22,0,0,0,.07.21,1.23,1.23,0,0,1,.35-.29A2.56,2.56,0,0,0,2.65,22c.44-.37.47-.59.13-1a1.05,1.05,0,0,1-.31-.55,6.1,6.1,0,0,0-.18-1.2c-.09-.44,0-.58.36-.75a1.91,1.91,0,0,0,.93-.73A2.08,2.08,0,0,1,4.88,17a14.15,14.15,0,0,0,2.43-.89.48.48,0,0,0,.28-.26,2.51,2.51,0,0,1,1-1.26c.19-.14.39-.25.59-.38a1.39,1.39,0,0,1,.71-.07l-.23.1A2.38,2.38,0,0,0,8.15,15.8a1.28,1.28,0,0,1-.85.9L7,16.82c-.78.32-1.6.54-2.4.83a1.33,1.33,0,0,0-.78.69.76.76,0,0,0,.07.83,8.34,8.34,0,0,1,.8,1.31c.16.31.25.64.38.95a.48.48,0,0,0,.5.32,3.71,3.71,0,0,0,.48-.05.3.3,0,0,1,.31.1,2.56,2.56,0,0,0,1.4.64c-.21-.31-.08-.58,0-.85a1.29,1.29,0,0,0,0-.8c-.06-.47-.35-.64-.76-.43-.13.07-.24.17-.34,0s-.17-.09-.26-.11-.12,0-.16-.06a3.72,3.72,0,0,1-.5-1.28A.26.26,0,0,1,6,18.54a3.71,3.71,0,0,1,1.9.28,2.83,2.83,0,0,0,3.44-.66,2.49,2.49,0,0,0,.37-2.81c.1,0,.15.06.21.13a2.24,2.24,0,0,1,.36.82,3.54,3.54,0,0,1,.05,1,17.16,17.16,0,0,0,1.41-1.75l0,0A15.58,15.58,0,0,0,15.24,13c.06-.12,0-.17-.07-.24a13.15,13.15,0,0,1-1.53-2.18c-.09-.15-.18-.3-.27-.47l-.15.19a1.21,1.21,0,0,1-.78.42c-.08,0-.17,0-.09-.11A2,2,0,0,0,12.53,9,6.57,6.57,0,0,0,12,7.52a1.34,1.34,0,0,1-.52.62c-.24.13-.27.11-.27-.15A4.9,4.9,0,0,0,11,6.61a1.2,1.2,0,0,1-.49.86,4.88,4.88,0,0,0-.28-1.19c-.08.51-.18.94-.75,1a1.19,1.19,0,0,0,0-1A2.43,2.43,0,0,0,8.16,5.16l-.84-.51c0,.41,0,.78-.31,1a1.07,1.07,0,0,1-1.07.12c.17-.08.3-.18.31-.37a1.54,1.54,0,0,0-.73-1.27s-.08,0-.1,0A3.81,3.81,0,0,1,4.79,5a.5.5,0,0,0-.14.31c-.21-.26-.08-.48,0-.69a1.63,1.63,0,0,0,.56-1.2,2.88,2.88,0,0,0-1,1s0,.12-.12.1a1.81,1.81,0,0,1,.69-1.17A2,2,0,0,0,4,3.89a2.15,2.15,0,0,0-.45.89s0-.17-.14-.06A2.52,2.52,0,0,0,3.17,5a1.25,1.25,0,0,1-1,.58A.18.18,0,0,0,2,5.69a3,3,0,0,0-.2.92,1.35,1.35,0,0,1,0-1,.46.46,0,0,0-.08-.43,1.41,1.41,0,0,0-.3,1.56A1.29,1.29,0,0,1,1.5,7a1,1,0,0,1,0,.45A21.61,21.61,0,0,1,.89,9.65a.64.64,0,0,1-.14.22A1,1,0,0,0,.48,10.81ZM13,10a3.46,3.46,0,0,0,.6-1.18,1.14,1.14,0,0,1,0,.63c0,.08,0,.16,0,.23a8.61,8.61,0,0,0,.74.86,2.78,2.78,0,0,0,.05-1,2.1,2.1,0,0,1,.45.57A2.27,2.27,0,0,0,14,8.21a1.87,1.87,0,0,0,.78-.3,3.74,3.74,0,0,1-.66-.34,1,1,0,0,0,.69-.83c0-.14,0-.21-.17-.17a1.08,1.08,0,0,1-.44,0,1.59,1.59,0,0,1-1-.67A2.73,2.73,0,0,0,12,5l-.79-.28a2.9,2.9,0,0,1,1.09.17.2.2,0,0,0,.22,0A1.17,1.17,0,0,0,13,3.4a1.29,1.29,0,0,1-1.48.42,5.46,5.46,0,0,0-1.89-.18,1.48,1.48,0,0,1-1.27-.55.32.32,0,0,1,.17,0,2.42,2.42,0,0,0,1.63.19,2.26,2.26,0,0,1,.26,0c.16,0,.19-.05.19-.2a1.65,1.65,0,0,0-.26-.89c-.07-.11-.11-.24-.25-.28a.78.78,0,0,1-1,.62A1.69,1.69,0,0,1,8.23,2a1.6,1.6,0,0,0-1.47-.5A2.93,2.93,0,0,0,6,1.7a.42.42,0,0,1-.25.06,3.25,3.25,0,0,1,.81-.41,2.82,2.82,0,0,1,1-.13.21.21,0,0,0-.08-.06l-.2-.07a4.21,4.21,0,0,0-1.9,0,1.26,1.26,0,0,0-.7.24,1.3,1.3,0,0,0-.41.2c-.1.06-.16.17-.29.18A5.49,5.49,0,0,1,4.9.36,2,2,0,0,0,2.74,1.93c0,.08-.11.16,0,.24a1.74,1.74,0,0,0,.08.93c-.18-.06-.25-.2-.34-.32a3.65,3.65,0,0,0-.13-.55A9.88,9.88,0,0,1,2.22,1a2,2,0,0,0-.37,1.73,1,1,0,0,0,.2.57c.38.39.79.77,1.2,1.16a1.69,1.69,0,0,0,.22-.35,1.58,1.58,0,0,1,1.06-1,3,3,0,0,0,.85-.34c.08-.07.11,0,.13,0a1.76,1.76,0,0,1,.06.72c0,.16,0,.28.17.35a.88.88,0,0,1,.33.28,1.73,1.73,0,0,1,.47,1.42c.63-.44.39-1,.4-1.61L8.59,5a3,3,0,0,1,.65.46,2.22,2.22,0,0,1,.67,1.2,2.81,2.81,0,0,0-.14-1.54,2.46,2.46,0,0,1,.93,1.65c.16-.42,0-.8,0-1.19a3.62,3.62,0,0,1,.78,2.15A3.26,3.26,0,0,0,12,6.56l.63,1.52A4.38,4.38,0,0,1,13,10l0,0,0,0ZM7.12,22.92a5.58,5.58,0,0,1-1-.57.54.54,0,0,0-.44-.12c-.31.05-.65.12-.89-.17a.47.47,0,0,0-.34-.19,1.1,1.1,0,0,1-.26-.06C4,21.73,4,21.82,4,22a3.22,3.22,0,0,1-.16.82c-.06.17,0,.24.16.29A6.44,6.44,0,0,0,7.12,22.92Zm-3.63-1h0a.27.27,0,0,0-.19-.29c-.1,0-.1.11-.14.18s-.14.23-.22.33a5.5,5.5,0,0,1-.62.56c-.5.5-.4.8.08,1.3a.19.19,0,0,0,.28,0,1.4,1.4,0,0,0,.41-.49A4.71,4.71,0,0,0,3.49,21.91Zm4.34-1.67A2.19,2.19,0,0,1,8,21.76.81.81,0,0,0,8,22c0,.44.15.55.58.53s.4-.07.31-.41c-.13-.5-.34-1-.52-1.45C8.31,20.37,8.16,20.2,7.83,20.24Z"/><path class="cls-2" d="M1.81,6.61A3,3,0,0,1,2,5.69a.18.18,0,0,1,.18-.14,1.25,1.25,0,0,0,1-.58,2.52,2.52,0,0,1,.21-.25c.09-.11.09,0,.14.06A2.15,2.15,0,0,1,4,3.89a2,2,0,0,1,.88-.48,1.81,1.81,0,0,0-.69,1.17,1,1,0,0,0,.1.62,3.39,3.39,0,0,1,.4-.78l0,.22c-.11.21-.24.43,0,.69A.5.5,0,0,1,4.79,5a1,1,0,0,0,.62-.29c.13-.13.21-.08.32,0a1.75,1.75,0,0,1,.52.71c0,.19-.14.29-.31.37A1.07,1.07,0,0,0,7,5.69c.32-.26.31-.63.31-1l.84.51c.08.23.29.35.42.53a2.41,2.41,0,0,1,.56,1.56s0,.11,0,.14S9,7.36,9,7.33a3.27,3.27,0,0,0-.37-.28,2.21,2.21,0,0,0-.7-.39c.43.48.81.92,1.15,1.38,0,0,0,.07.08.08h0l.41.65a5.6,5.6,0,0,1,.9,2.71,1.34,1.34,0,0,0,.06.56,5.84,5.84,0,0,1-.17.92,1.31,1.31,0,0,0,.62-.53,2.18,2.18,0,0,0,.2-1.91l-.24-.85A10.5,10.5,0,0,1,14,14.49c-.33-.35-.67-.69-1-1a3.14,3.14,0,0,0-.6-.55h0v0c.44.87.95,1.71,1.34,2.6a17.16,17.16,0,0,1-1.41,1.75,3.54,3.54,0,0,0-.05-1,2.24,2.24,0,0,0-.36-.82c-.06-.07-.11-.14-.21-.13a.72.72,0,0,0-.31-.53h0l0,0A4.27,4.27,0,0,1,11.52,16a1.45,1.45,0,0,1-.21.7,2.06,2.06,0,0,0-.38-1.05.65.65,0,0,0,0,.34,1.64,1.64,0,0,1-.51,1.52,1.44,1.44,0,0,1-1.54.18,1.09,1.09,0,0,0-.93,0l-.11,0c-.77.2-1.55.3-2.34.43a.3.3,0,0,0-.26.24,3,3,0,0,0,.1,1.84A2.87,2.87,0,0,0,6,21.23a5.19,5.19,0,0,1-.11-.65l.18.2a.55.55,0,0,0,.65.13,1.3,1.3,0,0,1,1-.12,1.29,1.29,0,0,1,0,.8c0,.27-.18.54,0,.85a2.56,2.56,0,0,1-1.4-.64.3.3,0,0,0-.31-.1,3.71,3.71,0,0,1-.48.05.48.48,0,0,1-.5-.32c-.13-.31-.22-.64-.38-.95a8.34,8.34,0,0,0-.8-1.31.76.76,0,0,1-.07-.83,1.33,1.33,0,0,1,.78-.69c.8-.29,1.62-.51,2.4-.83l.29-.12a1.28,1.28,0,0,0,.85-.9,2.38,2.38,0,0,1,1.47-1.56l.23-.1a1.39,1.39,0,0,0-.71.07c-.21-.1-.4,0-.58.08a2.36,2.36,0,0,0-1.4,1.2,1.47,1.47,0,0,1,.34-1.11.21.21,0,0,0-.22,0,1.82,1.82,0,0,0-1.09,1.32.5.5,0,0,1-.29.37c-1.27.59-2.54,1.2-3.78,1.84l-.35.2a.46.46,0,0,0-.21.53,3.52,3.52,0,0,0,.25.71.59.59,0,0,1,0,.56,1.88,1.88,0,0,0-.17.57,1.35,1.35,0,0,0,.59,1.16c.14.13.33.2.43.37a2.56,2.56,0,0,1-.53.35,1.23,1.23,0,0,0-.35.29.22.22,0,0,1-.07-.21,1.61,1.61,0,0,0-.44-.95A.93.93,0,0,1,1,20.75c0-.32.05-.64.07-1s.06-.25.22-.12l.1,0c0-.1,0-.15-.06-.22A3.21,3.21,0,0,1,1,18.84a.85.85,0,0,1,.36-1.09,5.74,5.74,0,0,1,1.08-.54,13.19,13.19,0,0,0,1.38-.62,1.43,1.43,0,0,0,.69-.68,3.67,3.67,0,0,1,.3-.53,4.21,4.21,0,0,0,.26.93A9.11,9.11,0,0,1,5.34,14a7,7,0,0,1,.91-2.12,5,5,0,0,1,0,1.44,1.73,1.73,0,0,0,.37-.91.12.12,0,0,0,.1-.08,2.51,2.51,0,0,0,.33-1.13A4.86,4.86,0,0,0,7,10.1a7.46,7.46,0,0,1,.4.8,2.32,2.32,0,0,0,.11-.6A4.34,4.34,0,0,0,7,8,6.86,6.86,0,0,0,5.3,5.78h0c0,.14,0,.28,0,.41a3.11,3.11,0,0,1-.89,2.19,1.16,1.16,0,0,1-.56.41h0c0-.11,0-.22-.06-.33a1.65,1.65,0,0,1-.48.62,3.13,3.13,0,0,0-1,.76.83.83,0,0,1,0-.51A5.74,5.74,0,0,1,2.7,8.17v0h0a.93.93,0,0,0-.39.46c-.08,0-.11.08-.15.14l-.36.54a1.82,1.82,0,0,1,0-.33c.06-.38.14-.76.21-1.14,0-.17.09-.25.27-.23s.31-.08.35-.28a1.66,1.66,0,0,1,.19-.48,1.73,1.73,0,0,1,.63-.63.83.83,0,0,0-.55.25,2.64,2.64,0,0,0-.48.62c0,.07-.07.13-.17.11A.59.59,0,0,1,1.81,6.61Zm2.56.5.13-.49A1.78,1.78,0,0,1,4.06,7a1.55,1.55,0,0,1,0-.21c0-.13-.2-.23-.1-.36s.24-.13.37-.18,0,0,0,0a1,1,0,0,0-.89.26,2.44,2.44,0,0,0-.69.93c-.16.33-.15.33-.52.3l0,0c.25.27.48.29.64.06h.32a.94.94,0,0,0,.93-.09A.6.6,0,0,0,4.37,7.11Zm1.32,10.4h.14l2-.33a2.14,2.14,0,0,1,.94-.08,2.41,2.41,0,0,0,.8.1,1,1,0,0,0,1-1c0-.14,0-.21-.18-.13A.61.61,0,0,1,9.73,16a.8.8,0,0,1,0-1.14,6,6,0,0,1,.52-.48,1,1,0,0,0-.31.1,3.21,3.21,0,0,0-.81.57,2.22,2.22,0,0,0-.77,1.29.25.25,0,0,1-.19.23L7.06,17ZM6,12.8a5.11,5.11,0,0,0-.59,3c.28-.31.52-.65.82-.93a4.15,4.15,0,0,0,1.19-2.09,1.47,1.47,0,0,0,0-1A4.4,4.4,0,0,1,6.35,14,4.92,4.92,0,0,1,6,12.8ZM7.75,7.4a20,20,0,0,1,2.08,5.1,2.47,2.47,0,0,0,.19-.84,4,4,0,0,0-.43-1.84A8.09,8.09,0,0,0,8.36,8,2.05,2.05,0,0,0,7.75,7.4ZM4.68,20c.05-.05,0-.09,0-.14s-.12-.4-.2-.6a.26.26,0,0,1,.08-.36.56.56,0,0,0,.24-.4,1,1,0,0,1,.11-.38c0-.09.11-.18,0-.27s-.19,0-.29,0a.9.9,0,0,0-.55,1.25c0,.08.08.17.13.25A4.66,4.66,0,0,0,4.68,20Zm3-12.75v0h0Z"/><path class="cls-3" d="M16.06,5c.09,0,.14,0,.2.1a4.17,4.17,0,0,1,1.56,2.29c0,.05,0,.11.05.17l0,.06a4,4,0,0,0,.53-.91,10.6,10.6,0,0,1-1.28,6.68,4.61,4.61,0,0,0,1.24-.66,10.42,10.42,0,0,1-1.48,2.82,14.09,14.09,0,0,1-2.2,2.39,5.51,5.51,0,0,0,1.74-.21c0,.12-.09.17-.15.23a12.52,12.52,0,0,1-4.92,3.18,7.7,7.7,0,0,0-1.78.8c-.14.1-.2.06-.22-.1a4.67,4.67,0,0,0-.28-.92c-.06-.14,0-.2.1-.27a15,15,0,0,0,3.22-2.55,17.4,17.4,0,0,0,2.5-3.24,12.76,12.76,0,0,0,1.7-4.33,6,6,0,0,0-.11-2.92,2.85,2.85,0,0,0-2.61-2l-.48,0c-.24,0-.33-.26-.55-.36a1.25,1.25,0,0,0,.47-.5,4.84,4.84,0,0,1,3.72,2s0,0,0,0l0-.13a3.49,3.49,0,0,0-.56-1C16.35,5.29,16.15,5.17,16.06,5Z"/><path class="cls-4" d="M12.26,4.9a2.9,2.9,0,0,0-1.09-.17,3.07,3.07,0,0,0-.69,0l.25.1a3.45,3.45,0,0,1,2,1.54.8.8,0,0,0,.18.23,1.33,1.33,0,0,0,.89.47c.06,0,.15,0,.17,0s-.06.14-.12.19-.33.09-.53.12a1.44,1.44,0,0,0,.8.52,3.3,3.3,0,0,1-.67.13l.22.25a3.16,3.16,0,0,1,.73,1.22,2.78,2.78,0,0,1-.05,1,8.61,8.61,0,0,1-.74-.86c-.06-.07,0-.15,0-.23a1.14,1.14,0,0,0,0-.63A3.46,3.46,0,0,1,13,10h0a4.38,4.38,0,0,0-.35-1.89L12,6.56a3.26,3.26,0,0,1-.51,1.18,3.62,3.62,0,0,0-.78-2.15c0,.39.16.77,0,1.19a2.46,2.46,0,0,0-.93-1.65,2.81,2.81,0,0,1,.14,1.54,2.22,2.22,0,0,0-.67-1.2A3,3,0,0,0,8.59,5L6.94,4c0,.57.23,1.17-.4,1.61a1.73,1.73,0,0,0-.47-1.42A.88.88,0,0,0,5.74,4c-.18-.07-.19-.19-.17-.35a1.76,1.76,0,0,0-.06-.72c0-.08,0-.12-.13,0a3,3,0,0,1-.85.34,1.58,1.58,0,0,0-1.06,1,1.69,1.69,0,0,1-.22.35c-.41-.39-.82-.77-1.2-1.16a1,1,0,0,1-.2-.57,2.05,2.05,0,0,1,.23-.86,1.52,1.52,0,0,0,.39.9c.09.12.16.26.34.32a1.74,1.74,0,0,1-.08-.93c.08,0,.09-.14.13-.22A2.64,2.64,0,0,1,3.64,1,.77.77,0,0,1,4.08.84a1.91,1.91,0,0,0-.47,1.28l.32-.45c.13,0,.19-.12.29-.18a1.3,1.3,0,0,1,.41-.2,6.18,6.18,0,0,1,1.49-.05c.15,0,.31,0,.43.11a3.25,3.25,0,0,0-.81.41,1.8,1.8,0,0,0-.57.48,6.37,6.37,0,0,1,1.09-.33,2,2,0,0,1,2,.53,2.11,2.11,0,0,0,.5.39,1,1,0,0,0,1.16,0c.07,0,.12-.12.22-.13a2.38,2.38,0,0,1,.05.65,2.42,2.42,0,0,1-1.63-.19.32.32,0,0,0-.17,0L8.3,3c-.08,0,0,.1,0,.14A1.43,1.43,0,0,0,9.93,4a1.77,1.77,0,0,1,1.22.12,1,1,0,0,0,.33.11,1.46,1.46,0,0,0,1,0s.1-.07.14,0,0,.11,0,.17A1,1,0,0,1,12.26,4.9Z"/><path class="cls-5" d="M13.73,15.54c-.39-.89-.9-1.73-1.34-2.6l0,0a3.41,3.41,0,0,1,.59.55c.34.33.68.67,1,1a10.5,10.5,0,0,0-3.11-4.82l.24.85a2.18,2.18,0,0,1-.2,1.91,1.31,1.31,0,0,1-.62.53A5.84,5.84,0,0,0,10.5,12a1.71,1.71,0,0,0,.2-1A4.81,4.81,0,0,0,9.28,8.21s-.06-.12-.15-.09h0c0-.07,0-.08-.08-.08-.34-.46-.72-.9-1.15-1.38a2.21,2.21,0,0,1,.7.39A3.27,3.27,0,0,1,9,7.33s.07.09.13.06,0-.09,0-.14a2.41,2.41,0,0,0-.56-1.56c-.13-.18-.34-.3-.42-.53A2.43,2.43,0,0,1,9.48,6.3a1.19,1.19,0,0,1,0,1c.57-.09.67-.52.75-1a4.88,4.88,0,0,1,.28,1.19A1.2,1.2,0,0,0,11,6.61,4.9,4.9,0,0,1,11.21,8c0,.26,0,.28.27.15A1.34,1.34,0,0,0,12,7.52,6.57,6.57,0,0,1,12.53,9a2,2,0,0,1-.18,1.6c-.08.12,0,.12.09.11a1.21,1.21,0,0,0,.78-.42l.15-.19c.09.17.18.32.27.47a13.15,13.15,0,0,0,1.53,2.18c.06.07.13.12.07.24a15.58,15.58,0,0,1-1.47,2.53Z"/><path class="cls-5" d="M7.76,20.79a1.3,1.3,0,0,0-1,.12.55.55,0,0,1-.65-.13l-.18-.2a5.19,5.19,0,0,0,.11.65,2.87,2.87,0,0,1-.7-1.07,3,3,0,0,1-.1-1.84.3.3,0,0,1,.26-.24c.79-.13,1.57-.23,2.34-.43l.11,0a1.09,1.09,0,0,1,.93,0,1.44,1.44,0,0,0,1.54-.18A1.64,1.64,0,0,0,10.93,16a.65.65,0,0,1,0-.34,2.06,2.06,0,0,1,.38,1.05,1.45,1.45,0,0,0,.21-.7,4.27,4.27,0,0,0-.14-1.13v0a.72.72,0,0,1,.31.53,2.49,2.49,0,0,1-.37,2.81,2.83,2.83,0,0,1-3.44.66A3.71,3.71,0,0,0,6,18.54a.26.26,0,0,0-.25.34,3.72,3.72,0,0,0,.5,1.28c0,.06.1.05.16.06s.21,0,.26.11.21.1.34,0C7.41,20.15,7.7,20.32,7.76,20.79Z"/><path class="cls-5" d="M2.7,8.17a5.74,5.74,0,0,0-.38,1.15.83.83,0,0,0,0,.51,3.13,3.13,0,0,1,1-.76,1.65,1.65,0,0,0,.48-.62c.1.11.05.22.06.33h0a0,0,0,0,0,0,0,1.16,1.16,0,0,0,.56-.41,3.11,3.11,0,0,0,.89-2.19c0-.13,0-.27,0-.41h0A6.86,6.86,0,0,1,7,8,4.34,4.34,0,0,1,7.5,10.3a2.32,2.32,0,0,1-.11.6,7.46,7.46,0,0,0-.4-.8,4.86,4.86,0,0,1,.07,1.14,2.51,2.51,0,0,1-.33,1.13.12.12,0,0,1-.1.08c0-.41,0-.82,0-1.23a7,7,0,0,0-.76-2.69.4.4,0,0,1,0-.32,1.77,1.77,0,0,0-.26-1.66,2.77,2.77,0,0,1,0,1.28c-.08-.17,0-.35-.16-.55a2.32,2.32,0,0,1-.12,1,1.15,1.15,0,0,1-.45.61A3.2,3.2,0,0,0,4,9.58c-.07.11-.16,0-.24,0a1.17,1.17,0,0,0-1.14.12,1.45,1.45,0,0,0,.43,0,.48.48,0,0,1,.53.33,1.49,1.49,0,0,1-.45,1.61A4.07,4.07,0,0,1,2.3,12a.67.67,0,0,1-.46,0,1.1,1.1,0,0,1,.39-.27,7,7,0,0,0,.85-.46c.39-.25.42-.51.13-.87-.07-.09-.15-.16-.22-.24s.13,0,.17-.06a.45.45,0,0,0-.72.17c-.11.21-.2.43-.29.64a1.2,1.2,0,0,1-.95.71.24.24,0,0,1-.28-.12c.35-.15.37-.44.36-.76s.09-.54.35-.7C2,10,2,10,2,9.81a1.42,1.42,0,0,1,.11-.7,2.34,2.34,0,0,0,.19-.5.93.93,0,0,1,.39-.46ZM7,10H7Z"/><path class="cls-3" d="M3,12.22l.63-.39a.6.6,0,0,0,.28-.38c.06-.29.13-.57.2-.86a.47.47,0,0,0,.09-.06c.34-.44.69-.88,1.06-1.29,0,0,.1-.08,0-.15h0c.12,0,.14-.1.21-.14.41.75.41.75-.13,1.4a16,16,0,0,0-3,5.23,9.9,9.9,0,0,0-.28,1.07.25.25,0,0,1-.14.2,2.74,2.74,0,0,0-1.31.86,3.17,3.17,0,0,1,.12-1,.32.32,0,0,0,.1-.19,23.93,23.93,0,0,1,1.46-3.12Z"/><path class="cls-5" d="M2.65,22c-.1-.17-.29-.24-.43-.37a1.35,1.35,0,0,1-.59-1.16,1.88,1.88,0,0,1,.17-.57.59.59,0,0,0,0-.56,3.52,3.52,0,0,1-.25-.71.46.46,0,0,1,.21-.53l.35-.2c1.24-.64,2.51-1.25,3.78-1.84a.5.5,0,0,0,.29-.37,1.82,1.82,0,0,1,1.09-1.32.21.21,0,0,1,.22,0,1.47,1.47,0,0,0-.34,1.11,2.36,2.36,0,0,1,1.4-1.2c.18-.06.37-.18.58-.08-.2.13-.4.24-.59.38a2.51,2.51,0,0,0-1,1.26.48.48,0,0,1-.28.26A14.15,14.15,0,0,1,4.88,17a2.08,2.08,0,0,0-1.3.77,1.91,1.91,0,0,1-.93.73c-.41.17-.45.31-.36.75a6.1,6.1,0,0,1,.18,1.2,1.05,1.05,0,0,0,.31.55C3.12,21.43,3.09,21.65,2.65,22Z"/><path class="cls-5" d="M14.41,9.53a3.16,3.16,0,0,0-.73-1.22l-.22-.25a3.3,3.3,0,0,0,.67-.13,1.44,1.44,0,0,1-.8-.52c.2,0,.39,0,.53-.12S14,7.18,14,7.1s-.11,0-.17,0a1.33,1.33,0,0,1-.89-.47.8.8,0,0,1-.18-.23,3.45,3.45,0,0,0-2-1.54l-.25-.1a3.07,3.07,0,0,1,.69,0L12,5a2.73,2.73,0,0,1,1.21.91,1.59,1.59,0,0,0,1,.67,1.08,1.08,0,0,0,.44,0c.16,0,.19,0,.17.17a1,1,0,0,1-.69.83,3.74,3.74,0,0,0,.66.34,1.87,1.87,0,0,1-.78.3,2.27,2.27,0,0,1,.87,1.89A2.1,2.1,0,0,0,14.41,9.53Z"/><path class="cls-6" d="M1.81,6.61a.59.59,0,0,0,.42.57c.1,0,.13,0,.17-.11a2.64,2.64,0,0,1,.48-.62.83.83,0,0,1,.55-.25,1.73,1.73,0,0,0-.63.63,1.66,1.66,0,0,0-.19.48c0,.2-.14.31-.35.28S2,7.65,2,7.82c-.07.38-.15.76-.21,1.14a1.82,1.82,0,0,0,0,.33c0,.05,0,.11-.1.1-.31-.05-.44.16-.55.39a1.33,1.33,0,0,0-.12.59c-.26.05-.38.26-.53.44a1,1,0,0,1,.27-.94.64.64,0,0,0,.14-.22,21.61,21.61,0,0,0,.64-2.22A1,1,0,0,0,1.5,7a1.29,1.29,0,0,0-.07-.21,1.41,1.41,0,0,1,.3-1.56.46.46,0,0,1,.08.43A1.35,1.35,0,0,0,1.81,6.61Z"/><path class="cls-3" d="M7.12,22.92A6.44,6.44,0,0,1,4,23.11c-.19-.05-.22-.12-.16-.29A3.22,3.22,0,0,0,4,22c0-.18.07-.27.26-.19a1.1,1.1,0,0,0,.26.06.47.47,0,0,1,.34.19c.24.29.58.22.89.17a.54.54,0,0,1,.44.12A5.58,5.58,0,0,0,7.12,22.92Z"/><path class="cls-5" d="M10.15,3.31a2.38,2.38,0,0,0-.05-.65c-.1,0-.15.08-.22.13a1,1,0,0,1-1.16,0,2.11,2.11,0,0,1-.5-.39,2,2,0,0,0-2-.53,6.37,6.37,0,0,0-1.09.33,1.8,1.8,0,0,1,.57-.48A.42.42,0,0,0,6,1.7a2.93,2.93,0,0,1,.77-.21A1.6,1.6,0,0,1,8.23,2a1.69,1.69,0,0,0,.84.57.78.78,0,0,0,1-.62c.14,0,.18.17.25.28a1.65,1.65,0,0,1,.26.89c0,.15,0,.23-.19.2A2.26,2.26,0,0,0,10.15,3.31Z"/><path class="cls-5" d="M12.26,4.9a1,1,0,0,0,.37-.55c0-.06,0-.13,0-.17s-.09,0-.14,0a1.46,1.46,0,0,1-1,0,1,1,0,0,1-.33-.11A1.77,1.77,0,0,0,9.93,4,1.43,1.43,0,0,1,8.3,3.15s-.08-.1,0-.14l0,.08a1.48,1.48,0,0,0,1.27.55,5.46,5.46,0,0,1,1.89.18A1.29,1.29,0,0,0,13,3.4a1.17,1.17,0,0,1-.51,1.52A.2.2,0,0,1,12.26,4.9Z"/><path class="cls-5" d="M3.49,21.91a4.71,4.71,0,0,1-.4,1.6,1.4,1.4,0,0,1-.41.49.19.19,0,0,1-.28,0c-.48-.5-.58-.8-.08-1.3a5.5,5.5,0,0,0,.62-.56c.08-.1.14-.22.22-.33s0-.22.14-.18a.27.27,0,0,1,.19.29Z"/><path class="cls-2" d="M3,12.22l-.67,1.16A23.93,23.93,0,0,0,.85,16.5a.32.32,0,0,1-.1.19,8.34,8.34,0,0,1,.47-1.83,14.46,14.46,0,0,1,1-2.17.46.46,0,0,1,.33-.29A4.52,4.52,0,0,0,3,12.22Z"/><path class="cls-5" d="M7.83,20.24c.33,0,.48.13.58.41.18.49.39,1,.52,1.45.09.34,0,.4-.31.41S8.07,22.42,8,22a.81.81,0,0,1,0-.22A2.19,2.19,0,0,0,7.83,20.24Z"/><path class="cls-5" d="M3.93,1.67l-.32.45A1.91,1.91,0,0,1,4.08.84.77.77,0,0,0,3.64,1,2.64,2.64,0,0,0,2.86,2c0,.08,0,.17-.13.22s0-.16,0-.24A2,2,0,0,1,4.9.36,5.49,5.49,0,0,0,3.93,1.67Z"/><path class="cls-2" d="M.48,10.81c.15-.18.27-.39.53-.44a.75.75,0,0,0,.09.34c0-.15,0-.27,0-.39a1.51,1.51,0,0,1,.1-.38.36.36,0,0,1,.51-.24L2,9.81C2,10,2,10,1.63,10c-.2-.08-.31,0-.35.16a1.63,1.63,0,0,0,0,.54c0,.32,0,.61-.36.76A1,1,0,0,1,.48,10.81Z"/><path class="cls-6" d="M2.39,4.37c0,.19-.19.24-.33.32.12.08.22,0,.32,0a3.51,3.51,0,0,0,.27.4.41.41,0,0,1-.2.12c-.18.06-.3,0-.4-.16C1.71,4.29,1.34,3.55,1,2.8l0,0,.46.44a.12.12,0,0,1,0,.19s-.07.06-.07.07a1.8,1.8,0,0,0,.26.34c.07.07.13-.07.21-.06s-.14.17-.18.28S1.84,4,1.9,4C2.09,4.39,2.13,4.42,2.39,4.37Z"/><path class="cls-5" d="M4.68,4.64l0-.22a3.39,3.39,0,0,0-.4.78,1,1,0,0,1-.1-.62c.09,0,.09-.06.12-.1a2.88,2.88,0,0,1,1-1A1.63,1.63,0,0,1,4.68,4.64Z"/><path class="cls-5" d="M6.55,1.35c-.12-.12-.28-.1-.43-.11a6.18,6.18,0,0,0-1.49.05,1.26,1.26,0,0,1,.7-.24,4.21,4.21,0,0,1,1.9,0l.2.07a.21.21,0,0,1,.08.06A2.82,2.82,0,0,0,6.55,1.35Z"/><path class="cls-6" d="M2.75,10.78a.87.87,0,0,0,.32-.31c.2.23.19.42,0,.58a3.25,3.25,0,0,1-.93.42,3.61,3.61,0,0,0,.47-.89c0-.12.1-.34.27-.25s-.05.22-.1.33a.2.2,0,0,1,0,.08s0,0,0,.06S2.73,10.82,2.75,10.78Z"/><path class="cls-5" d="M2.47,2.78a1.52,1.52,0,0,1-.39-.9,2.05,2.05,0,0,0-.23.86A2,2,0,0,1,2.22,1a9.88,9.88,0,0,0,.12,1.22A3.65,3.65,0,0,1,2.47,2.78Z"/><path class="cls-5" d="M6.25,5.44a1.75,1.75,0,0,0-.52-.71c-.11-.08-.19-.13-.32,0A1,1,0,0,1,4.79,5a3.81,3.81,0,0,0,.63-.82s0,0,.1,0A1.54,1.54,0,0,1,6.25,5.44Z"/><path class="cls-2" d="M5.29,9.09c0,.07,0,.11,0,.15-.37.41-.72.85-1.06,1.29a.47.47,0,0,1-.09.06,1.44,1.44,0,0,1,.66-1.06A4.51,4.51,0,0,0,5.29,9.09Z"/><path class="cls-5" d="M2.65,5.08a3.51,3.51,0,0,1-.27-.4,1.28,1.28,0,0,0,.23-.29C3,4.67,3,4.82,2.65,5.08Z"/><path class="cls-5" d="M2.39,4.37c-.26,0-.3,0-.49-.35.07,0,.09-.2.22-.15s.34.35.31.45-.05,0-.05,0Z"/><path class="cls-5" d="M1.9,3.75c-.08,0-.14.13-.21.06a1.8,1.8,0,0,1-.26-.34s.05-.05.07-.07A.39.39,0,0,1,1.9,3.75Z"/><path class="cls-2" d="M5.5,9c-.07,0-.09.17-.21.14C5.36,9,5.34,8.85,5.5,9Z"/><path class="cls-3" d="M16,4.9c-.05,0-.07,0-.08-.06S16,4.85,16,4.9Z"/><path class="cls-3" d="M16.06,5S16,5,16,4.9A.06.06,0,0,1,16.06,5Z"/><path class="cls-4" d="M13,10,13,10l0,0,0,0Z"/><path class="cls-3" d="M15.9,4.84s-.05,0-.06,0A.05.05,0,0,1,15.9,4.84Z"/><path class="cls-6" d="M1,2.8s0,0,0-.06,0,0,0,0Z"/><path class="cls-6" d="M2.38,4.37s0,0,.05,0Z"/><path class="cls-6" d="M18.55,11.71l0,0s0,0,0-.07Z"/><path class="cls-1" d="M19.59,10.88h0l0,0v0Z"/><path class="cls-6" d="M5.69,17.51,7.06,17l1.1-.44a.25.25,0,0,0,.19-.23A2.22,2.22,0,0,1,9.12,15a3.21,3.21,0,0,1,.81-.57,1,1,0,0,1,.31-.1,6,6,0,0,0-.52.48.8.8,0,0,0,0,1.14.61.61,0,0,0,.68.06c.16-.08.19,0,.18.13a1,1,0,0,1-1,1,2.41,2.41,0,0,1-.8-.1,2.14,2.14,0,0,0-.94.08l-2,.33Z"/><path class="cls-6" d="M6,12.8A4.92,4.92,0,0,0,6.35,14a4.4,4.4,0,0,0,1.07-2.22,1.47,1.47,0,0,1,0,1,4.15,4.15,0,0,1-1.19,2.09c-.3.28-.54.62-.82.93A5.11,5.11,0,0,1,6,12.8Z"/><path class="cls-6" d="M7.75,7.4a2.05,2.05,0,0,1,.61.6A8.09,8.09,0,0,1,9.59,9.82,4,4,0,0,1,10,11.66a2.47,2.47,0,0,1-.19.84A20,20,0,0,0,7.75,7.4Z"/><path class="cls-1" d="M9.13,8.12c.09,0,.12.05.15.09A4.81,4.81,0,0,1,10.7,11a1.71,1.71,0,0,1-.2,1,1.34,1.34,0,0,1-.06-.56,5.6,5.6,0,0,0-.9-2.71Z"/><path class="cls-1" d="M2.82,7.76C2.66,8,2.43,8,2.18,7.7l0,0c.37,0,.36,0,.52-.3a2.44,2.44,0,0,1,.69-.93,1,1,0,0,1,.89-.26s0,0,0,0-.29.07-.37.18.09.23.1.36a1.55,1.55,0,0,0,0,.21c0,.32-.1.4-.41.48L3,7.63C2.92,7.65,2.84,7.66,2.82,7.76Zm.12-.27.3-.11.27-.09c.35-.1.42-.26.26-.6-.06-.12-.11-.14-.21,0A4,4,0,0,0,2.94,7.49Z"/><path class="cls-6" d="M4.68,20a4.66,4.66,0,0,1-.43-.66c0-.08-.08-.17-.13-.25a.9.9,0,0,1,.55-1.25c.1,0,.22-.07.29,0s0,.18,0,.27a1,1,0,0,0-.11.38.56.56,0,0,1-.24.4.26.26,0,0,0-.08.36c.08.2.14.4.2.6S4.73,20,4.68,20Z"/><path class="cls-1" d="M2,9.81,1.75,9.7a.36.36,0,0,0-.51.24,1.51,1.51,0,0,0-.1.38c0,.12,0,.24,0,.39A.75.75,0,0,1,1,10.37a1.33,1.33,0,0,1,.12-.59c.11-.23.24-.44.55-.39.08,0,.08-.05.1-.1l.36-.54c0-.06.07-.14.15-.14a2.34,2.34,0,0,1-.19.5A1.42,1.42,0,0,0,2,9.81Z"/><path class="cls-5" d="M2.82,7.76c0-.1.1-.11.18-.13l.65-.18C4,7.37,4,7.29,4.06,7a1.78,1.78,0,0,0,.44-.35l-.13.49c-.07,0-.09.07-.11.12a.82.82,0,0,1-.58.44l-.54.1Z"/><path class="cls-1" d="M3.14,7.77l.54-.1a.82.82,0,0,0,.58-.44c0-.05,0-.11.11-.12a.6.6,0,0,1-.3.57A.94.94,0,0,1,3.14,7.77Z"/><path class="cls-1" d="M9.05,8c.06,0,.11,0,.08.08S9.07,8.08,9.05,8Z"/><polygon class="cls-6" points="7.66 7.27 7.67 7.29 7.65 7.29 7.66 7.27"/><path class="cls-5" d="M5.3,5.78h0Z"/><path class="cls-5" d="M2.68,8.15h0v0Z"/><path class="cls-5" d="M11.38,14.84l0,0h0Z"/><path class="cls-5" d="M12.39,12.94v0h0Z"/><path class="cls-1" d="M1.28,10.72a1.63,1.63,0,0,1,0-.54c0-.2.15-.24.35-.16C1.37,10.18,1.39,10.49,1.28,10.72Z"/><polygon class="cls-2" points="6.96 9.98 6.94 9.98 6.95 9.97 6.96 9.98"/><path class="cls-2" d="M3.89,8.79a0,0,0,0,1,0,0h0Z"/><path class="cls-1" d="M2.75,10.78s-.06.05-.08,0,0,0,0-.06Z"/><path class="cls-5" d="M2.94,7.49a4,4,0,0,1,.62-.84c.1-.1.15-.08.21,0,.16.34.09.5-.26.6l-.27.09Z"/></g></g></g></svg>