<svg xmlns="http://www.w3.org/2000/svg" viewBox="0 0 23.95 23.95"><defs><style>.cls-1{fill:#9a65a5;}.cls-2{fill:#4aa3bd;}.cls-3{fill:#7285b2;}.cls-4{fill:#8d6fa9;}.cls-5{fill:#fdfdfe;}</style></defs><g id="Capa_2" data-name="Capa 2"><g id="MONEDAS"><path class="cls-1" d="M12.66,0A.75.75,0,0,0,13,.06a9.47,9.47,0,0,1,2.79.55,11.82,11.82,0,0,1,3.38,1.75A12,12,0,0,1,22.34,6a11.82,11.82,0,0,1,1.53,4.59,12.09,12.09,0,0,1,.06,2.17,11.84,11.84,0,0,1-.69,3.32l0,0c-.11,0-.17-.12-.23-.19-.25-.29-.49-.59-.73-.88L21.2,13.77c-.46-.55-.91-1.1-1.37-1.64s-.84-1-1.25-1.48L17.21,9,16,7.54,14.43,5.71,13.18,4.24l-1.71-2c-.46-.56-.94-1.11-1.4-1.67C10,.43,9.85.35,9.85.19l.74-.11A5.05,5.05,0,0,0,11.27,0Z"/><path class="cls-2" d="M16.7,23a11.26,11.26,0,0,1-2.67.8,12.3,12.3,0,0,1-2.78.15,11.72,11.72,0,0,1-3.15-.61,12.07,12.07,0,0,1-5.5-3.89s-.05-.09-.11-.1-.05-.1-.08-.15a12,12,0,0,1-.56-13.6l.06-.09a.17.17,0,0,1,.14.08c.17.22.35.43.53.64.42.49.84,1,1.25,1.47s1,1.22,1.52,1.82l1.72,2.05a.75.75,0,0,0,.72,1.14c.2,0,.39,0,.6,0,0,.05,0,.09-.05.13l-.82,2c-.26.63-.53,1.26-.78,1.89a.74.74,0,0,0,.53,1.07.78.78,0,0,0,.85-.52c.15-.36.29-.72.43-1.07.27-.65.54-1.3.8-2a6,6,0,0,1,.62.71c.36.41.71.83,1.06,1.25s.91,1.09,1.37,1.64l1.25,1.47c.41.48.81,1,1.21,1.45l1.56,1.84A1.26,1.26,0,0,1,16.7,23Z"/><path class="cls-3" d="M7.07,11.55,5.35,9.5c-.5-.6-1-1.22-1.52-1.82S3,6.7,2.58,6.21c-.18-.21-.36-.42-.53-.64a.17.17,0,0,0-.14-.08,7,7,0,0,1,.5-.71s.08-.09.07-.15.09-.06.12-.1A12,12,0,0,1,7.29,1l.11,0a.4.4,0,0,0,.11.2c.31.35.61.71.91,1.07s.59.7.88,1.06l.91,1.06c.36.43.72.85,1.07,1.29a3.59,3.59,0,0,1,.48.61,1,1,0,0,0-.89.58,2.41,2.41,0,0,0-.15.33l-1.65,4a.18.18,0,0,1-.19.13H7.78A.79.79,0,0,0,7.07,11.55Z"/><path class="cls-3" d="M16.7,23a1.26,1.26,0,0,0-.28-.4l-1.56-1.84c-.4-.48-.8-1-1.21-1.45L12.4,17.82c-.46-.55-.91-1.1-1.37-1.64s-.7-.84-1.06-1.25a6,6,0,0,0-.62-.71c.19-.47.38-.94.56-1.41a.17.17,0,0,1,.19-.13h1.13A.73.73,0,0,0,12,12a.72.72,0,0,0-.63-.78,5.81,5.81,0,0,0-.59,0c-.19,0-.19,0-.12-.17l1.13-2.82c.06-.16.13-.32.2-.48.06,0,.06.08.08.12l3.15,7.84c.22.55.43,1.1.68,1.64a.73.73,0,1,0,1.34-.6c-.31-.78-.64-1.55-.95-2.32l-1.2-2.9c.08,0,.12.06.17.12.31.35.61.71.91,1.07l1,1.24.9,1.07c.36.42.72.85,1.07,1.28l.92,1.09.9,1.07.58.69A10.48,10.48,0,0,1,20,20.83a11,11,0,0,1-1.13.91,11.68,11.68,0,0,1-2.06,1.18Z"/><path class="cls-4" d="M21.55,19.15,21,18.46l-.9-1.07-.92-1.09c-.35-.43-.71-.86-1.07-1.28L17.18,14l-1-1.24c-.3-.36-.6-.72-.91-1.07-.05-.06-.09-.12-.17-.12l-1.29-3.1c-.2-.48-.39-1-.59-1.43a1.12,1.12,0,0,0-.87-.77,3.33,3.33,0,0,0-.55,0,3.59,3.59,0,0,0-.48-.61c-.35-.44-.71-.86-1.07-1.29L9.3,3.24c-.29-.36-.59-.71-.88-1.06s-.6-.72-.91-1.07A.4.4,0,0,1,7.4.91,11.5,11.5,0,0,1,9.7.22l.15,0c0,.16.13.24.22.34.46.56.94,1.11,1.4,1.67l1.71,2,1.25,1.47L16,7.54,17.21,9l1.37,1.63c.41.5.83,1,1.25,1.48s.91,1.09,1.37,1.64L22.26,15c.24.29.48.59.73.88.06.07.12.17.23.19a9.93,9.93,0,0,1-.8,1.76A8.67,8.67,0,0,1,21.55,19.15Z"/><path class="cls-5" d="M11.76,6.2a3.33,3.33,0,0,1,.55,0,1.12,1.12,0,0,1,.87.77c.2.47.39,1,.59,1.43l1.29,3.1,1.2,2.9c.31.77.64,1.54.95,2.32a.73.73,0,1,1-1.34.6c-.25-.54-.46-1.09-.68-1.64L12,7.86s0-.09-.08-.12c-.07.16-.14.32-.2.48L10.63,11c-.07.17-.07.17.12.17a5.81,5.81,0,0,1,.59,0A.72.72,0,0,1,12,12a.73.73,0,0,1-.74.68H10.1a.17.17,0,0,0-.19.13c-.18.47-.37.94-.56,1.41-.26.66-.53,1.31-.8,2-.14.35-.28.71-.43,1.07a.78.78,0,0,1-.85.52.74.74,0,0,1-.53-1.07c.25-.63.52-1.26.78-1.89l.82-2s0-.08.05-.13c-.21,0-.4,0-.6,0a.75.75,0,0,1-.72-1.14.79.79,0,0,1,.71-.32h1.1a.18.18,0,0,0,.19-.13l1.65-4a2.41,2.41,0,0,1,.15-.33A1,1,0,0,1,11.76,6.2Z"/></g></g></svg>