<svg xmlns="http://www.w3.org/2000/svg" viewBox="0 0 24 24"><defs><style>.cls-1{fill:#e7b097;}.cls-2{fill:#884e4a;}.cls-3{fill:#b62a38;}.cls-4{fill:#b54a5f;}.cls-5{fill:#b44a5f;}</style></defs><g id="Capa_2" data-name="Capa 2"><g id="MONEDAS"><g id="hfgfrL.tif"><path class="cls-1" d="M13.54,24H10.37a2.39,2.39,0,0,0-.91-.26A11.81,11.81,0,0,1,.38,15C.21,14.44.12,13.84,0,13.25V10.37a2.39,2.39,0,0,0,.26-.91A11.81,11.81,0,0,1,9,.38C9.56.21,10.16.12,10.75,0h2.5a2.37,2.37,0,0,0,.36.09A12,12,0,0,1,23.73,9.41,3.38,3.38,0,0,0,24,10.46v3.17a2.65,2.65,0,0,0-.27,1,12,12,0,0,1-9.14,9.14A3.46,3.46,0,0,0,13.54,24Zm1.84-10.67a1.77,1.77,0,0,0-1.76-1,24.85,24.85,0,0,1-2.73,0c-.16,0-.4.09-.47-.1s.16-.28.27-.41c.4-.45.82-.89,1.23-1.34.15-.25,0-.25-.2-.26s-.55.07-.84-.1A9.64,9.64,0,0,1,12.1,8.79l7.13,7.61a24.62,24.62,0,0,0,.11-2.95c0-.16-.15-.24-.24-.35l-6.58-7c-.13-.14-.23-.32-.45-.33a.75.75,0,0,0-.4.32c-.77.8-1.56,1.59-2.29,2.42a13.59,13.59,0,0,0-1.51,1.71c-.22.09-.34.3-.49.47-.49.52-1,1.08-1.49,1.55a2.73,2.73,0,0,0-1.08,2.72c0,.12,0,.26,0,.38,0,.35-.12.95.08,1,.35.07.54-.43.81-.68.73-.71,1.33-1.55,2.14-2.2H15.4Z"/><path class="cls-2" d="M12.07,5.72c.22,0,.32.2.45.34l6.58,7c.09.11.24.19.24.35a24.62,24.62,0,0,1-.11,2.95L12.1,8.79Z"/><path class="cls-3" d="M15.35,13.41H7.84a1.06,1.06,0,0,1,.37-.54l1.57-1.67c.07-.07.19-.14.12-.27s-.17-.07-.27-.07H7.87c-.18,0-.4.05-.49-.19.15-.17.27-.38.49-.47.15.13.33.09.5.09.62,0,1.25,0,1.86,0a6.9,6.9,0,0,1,1.69.19c-.41.45-.83.89-1.23,1.34-.11.13-.34.23-.27.41s.31.1.47.1a24.85,24.85,0,0,0,2.73,0,1.77,1.77,0,0,1,1.76,1A.11.11,0,0,0,15.35,13.41Z"/><path class="cls-4" d="M7.38,10.65c.09.24.31.19.49.19H9.63c.1,0,.21,0,.27.07s-.05.2-.12.27L8.21,12.86a1.06,1.06,0,0,0-.37.54c-.81.65-1.41,1.49-2.14,2.2-.27.25-.46.75-.81.68-.2,0,0-.63-.08-1,0-.12,0-.26,0-.38A2.73,2.73,0,0,1,5.89,12.2C6.43,11.73,6.89,11.17,7.38,10.65Z"/><path class="cls-5" d="M11.92,10.47a6.9,6.9,0,0,0-1.69-.19c-.61,0-1.24,0-1.86,0-.17,0-.35,0-.5-.09A13.59,13.59,0,0,1,9.38,8.47c.73-.83,1.52-1.62,2.29-2.42a.82.82,0,0,1,.4-.33l0,3.07a9.64,9.64,0,0,0-1.22,1.32c.29.17.57.06.84.1S12.07,10.22,11.92,10.47Z"/><path class="cls-4" d="M15.35,13.41a.11.11,0,0,1,0-.08l0,.07Z"/></g></g></g></svg>