<svg xmlns="http://www.w3.org/2000/svg" viewBox="0 0 23.62 23.61"><defs><style>.cls-1{fill:#f9bc3a;}</style></defs><g id="Capa_2" data-name="Capa 2"><g id="MONEDAS"><path class="cls-1" d="M11.82,23.61A11.74,11.74,0,0,1,.07,13.1,11.52,11.52,0,0,1,3.51,3.42,11.46,11.46,0,0,1,11.88,0a11.81,11.81,0,0,1-.06,23.61ZM9.75,6.21H7.48c-.35,0-.31,0-.31.29,0,1,0,2.06,0,3.09,0,.17,0,.22-.22.22H5.78c-.14,0-.18,0-.18.18q0,.48,0,1c0,.14.05.18.18.17H7c.14,0,.18,0,.17.17,0,.33,0,.66,0,1,0,.15,0,.2-.2.19-.4,0-.8,0-1.2,0-.14,0-.18,0-.18.17q0,.48,0,1c0,.16.06.18.19.18H7c.17,0,.23,0,.23.21,0,1,0,2.07,0,3.11,0,.19,0,.24.24.24h3.76a9.85,9.85,0,0,0,1.33,0,5.54,5.54,0,0,0,4.66-3.35.22.22,0,0,1,.24-.16h1.07c.13,0,.18,0,.18-.17,0-.33,0-.65,0-1,0-.13,0-.17-.17-.16s-.51,0-.76,0-.19,0-.17-.17a3.49,3.49,0,0,0,0-1c0-.14.05-.16.16-.16h.72c.16,0,.23,0,.22-.2s0-.61,0-.91-.06-.2-.2-.2c-.31,0-.62,0-.92,0a.34.34,0,0,1-.39-.25A4.87,4.87,0,0,0,15.6,7.51a6.06,6.06,0,0,0-3.92-1.3Z"/><path class="cls-1" d="M15.84,9.82H8.68c-.2,0-.26,0-.26-.25q0-1,0-2c0-.13,0-.2.18-.2,1.19,0,2.39-.06,3.58,0a4.25,4.25,0,0,1,3.57,2.22A2.16,2.16,0,0,1,15.84,9.82Z"/><path class="cls-1" d="M15.82,13.79a4,4,0,0,1-1.61,1.73,4.79,4.79,0,0,1-2.42.64c-1,0-2.1,0-3.15,0-.15,0-.22,0-.22-.2q0-1,0-2c0-.14,0-.19.18-.19h7.13Z"/><path class="cls-1" d="M12.32,11.11H16c.19,0,.26.05.27.23s0,.61,0,.92-.09.2-.24.2H8.65c-.17,0-.22,0-.22-.2,0-.32,0-.63,0-.94,0-.16.05-.21.21-.21Z"/></g></g></svg>