<svg xmlns="http://www.w3.org/2000/svg" viewBox="0 0 24 24"><defs><style>.cls-1{fill:#006ae3;}</style></defs><g id="Capa_2" data-name="Capa 2"><g id="MONEDAS"><g id="vWCzJz.tif"><path class="cls-1" d="M24,11.89v.22s0,.05,0,.07,0,.3,0,.44,0,.56-.07.84a9.12,9.12,0,0,1-.22,1.27,12,12,0,0,1-1.19,3.09,12.07,12.07,0,0,1-5.55,5.11,11.52,11.52,0,0,1-2.63.84c-.32.06-.64.1-1,.14a6.2,6.2,0,0,1-.62.06l-.62,0h-.23c-.24,0-.48,0-.72,0s-.52,0-.77-.08a11.44,11.44,0,0,1-1.3-.24A11.73,11.73,0,0,1,6,22.39,11.59,11.59,0,0,1,3.8,20.75a12.6,12.6,0,0,1-1.42-1.59A11.45,11.45,0,0,1,1.09,17a11.19,11.19,0,0,1-.83-2.53c-.07-.33-.11-.66-.16-1s0-.47-.07-.72,0-.36,0-.55c0,0,0,0,0-.06v-.24s0-.05,0-.08,0-.29,0-.43,0-.46.05-.68.1-.71.17-1A11.78,11.78,0,0,1,1.33,6.52,12.1,12.1,0,0,1,3,4.07,12.59,12.59,0,0,1,4.83,2.39,11.94,11.94,0,0,1,7,1.08,11.41,11.41,0,0,1,9.57.26c.32-.07.65-.11,1-.16L11.27,0l.61,0h.26l.86,0,.86.1a13.12,13.12,0,0,1,1.73.4,12.29,12.29,0,0,1,3.23,1.59,12.16,12.16,0,0,1,4.36,5.51,11.42,11.42,0,0,1,.58,2c.06.32.11.64.15,1s.05.42.06.63,0,.37,0,.56C24,11.85,24,11.87,24,11.89ZM10.88,12a2.46,2.46,0,0,1,0-.28l.06-1a.12.12,0,0,0,0-.08l-.48-.4a4.06,4.06,0,0,1-.83-1,2.3,2.3,0,0,1-.3-1,2.35,2.35,0,0,1,0-.53,2.43,2.43,0,0,1,.08-.55,2.65,2.65,0,0,1,.94-1.44,2.51,2.51,0,0,1,1.44-.5,3.54,3.54,0,0,1,.73.06,3.35,3.35,0,0,1,.62.17,2.43,2.43,0,0,1,.89.73,2.67,2.67,0,0,1,.44,2.72,2,2,0,0,1-.11.26.11.11,0,0,1,0-.07c-.12-.49-.24-1-.35-1.47,0-.08,0-.08-.1-.06l-.55.12-.38.09a.15.15,0,0,0,0,.07l.3,1.42.42,1.93c0,.08,0,.08.11.06l2.07-.55L17,10.42s.06,0,.05-.06c-.1-.34-.19-.67-.28-1,0,0,0,0-.06,0l-.81.17-.51.12a.64.64,0,0,1,0-.07l.15-.45A4.19,4.19,0,0,0,15.76,8a5.35,5.35,0,0,0,0-.8,3.53,3.53,0,0,0-.47-1.33,3.91,3.91,0,0,0-1.82-1.54,2.31,2.31,0,0,0-.81-.21,6.42,6.42,0,0,0-.76,0,3.77,3.77,0,0,0-.89.15,3.64,3.64,0,0,0-1.65.91,3.75,3.75,0,0,0-.81,1.19A4.16,4.16,0,0,0,8.15,8a3.08,3.08,0,0,0,.09.85,3.58,3.58,0,0,0,.94,1.74,14.51,14.51,0,0,0,1.64,1.39ZM8.62,14.31c0,.1-.07.2-.11.29a4.55,4.55,0,0,0-.3,2.13,3.49,3.49,0,0,0,.3,1.06,3.71,3.71,0,0,0,1.6,1.7,3,3,0,0,0,1.33.41,5.64,5.64,0,0,0,1.36-.11,3.76,3.76,0,0,0,1.81-.94,3.89,3.89,0,0,0,.84-1.24,4.07,4.07,0,0,0,.36-1.42,3.78,3.78,0,0,0-.07-.89,3.73,3.73,0,0,0-.91-1.79,14.92,14.92,0,0,0-1.58-1.4l-.06,0a1.65,1.65,0,0,0,0,.21l-.06.59c0,.14,0,.29,0,.43a.15.15,0,0,0,.06.16,5.83,5.83,0,0,1,.81.76,3.11,3.11,0,0,1,.58.95,2.89,2.89,0,0,1-.25,2.34,2.48,2.48,0,0,1-2.15,1.24,2.71,2.71,0,0,1-.69-.08,2.5,2.5,0,0,1-.66-.19,2.23,2.23,0,0,1-.69-.54,2.74,2.74,0,0,1-.76-1.71,2.6,2.6,0,0,1,.19-1.17c0-.11.09-.21.14-.32h0l.06.29L10,16.32c0,.05,0,.07.07.05l.92-.18s0,0,0-.06c-.06-.36-.13-.71-.2-1.07s-.17-.92-.26-1.39l-.18-.95s0-.06-.06-.05a.35.35,0,0,1-.11,0L8,13.23,7,13.45s-.07,0,0,.08,0,.1,0,.15c.07.28.13.56.2.83,0,.05,0,.07.08.05l.55-.1Zm2.87-2.25V17c0,.14,0,.12.12.12h.88c.12,0,.11,0,.11-.11V7.12s0-.06,0-.06h-1a.05.05,0,0,0-.06.06v4.94Z"/></g></g></g></svg>