<svg xmlns="http://www.w3.org/2000/svg" viewBox="0 0 22 21.3"><defs><style>.cls-1{fill:#0396d8;}.cls-2{fill:#b3d236;}.cls-3{fill:#035323;}.cls-4{fill:#ece70d;}.cls-5{fill:#51b648;}</style></defs><g id="Capa_2" data-name="Capa 2"><g id="MONEDAS"><g id="xFzxrm.tif"><path class="cls-1" d="M20.94,8.49A10.62,10.62,0,0,1,22,11.57v.33c-.08,0-.1.09-.11.17a3.65,3.65,0,0,1-2.19,3.14,22.62,22.62,0,0,0-6.24,4.51,4.74,4.74,0,0,1-2.78,1.55,6.49,6.49,0,0,1-4.9-1.8,2.86,2.86,0,0,1-.71-.76l2.19.17a10.52,10.52,0,0,0,6.42-1.39,17.1,17.1,0,0,0,5.88-6.16,9.85,9.85,0,0,0,1.3-2.88Z"/><path class="cls-2" d="M0,13.11A40.32,40.32,0,0,0,2,6.55a13.43,13.43,0,0,1,.53-2.34A3.59,3.59,0,0,1,5.75,1.58a6.73,6.73,0,0,1,1.42,0C6.62,2.2,6,2.8,5.53,3.47,3.37,6.38,2,9.55,2.43,13.28A5.42,5.42,0,0,0,3.51,16.1a13.08,13.08,0,0,0,1.43,2.52A6.83,6.83,0,0,1,1.3,17.16,3.71,3.71,0,0,1,.23,15.61c-.05-.15,0-.34-.23-.41Z"/><path class="cls-3" d="M4.94,18.62A13.08,13.08,0,0,1,3.51,16.1,11.59,11.59,0,0,1,3.07,11,9.34,9.34,0,0,1,9.9,3.33,12.19,12.19,0,0,1,13.66,3c.17,0,.34.12.52.16a11.24,11.24,0,0,1,6.68,5.29,9.85,9.85,0,0,1-1.3,2.88,17.1,17.1,0,0,1-5.88,6.16,10.52,10.52,0,0,1-6.42,1.39l-2.19-.17Zm11.14-7.84a7.85,7.85,0,0,0-.81-3.5A4.9,4.9,0,0,0,9.66,4.65a6.24,6.24,0,0,0-4.11,9A5.72,5.72,0,0,0,12,16.4,5.54,5.54,0,0,0,16.08,10.78Z"/><path class="cls-4" d="M20.86,8.45a11.24,11.24,0,0,0-6.68-5.29c-.18,0-.35-.11-.52-.16A1.58,1.58,0,0,0,13,2.66,17.61,17.61,0,0,0,7.3,1.51,4.08,4.08,0,0,1,13,.9a11.6,11.6,0,0,0,5,1.76c.41.07.83.13,1.24.22A2.47,2.47,0,0,1,21.36,5a7.24,7.24,0,0,1-.42,3.45Z"/><path class="cls-5" d="M7.3,1.51A17.61,17.61,0,0,1,13,2.66a1.58,1.58,0,0,1,.62.34,12.19,12.19,0,0,0-3.76.33A9.34,9.34,0,0,0,3.07,11a11.59,11.59,0,0,0,.44,5.1,5.42,5.42,0,0,1-1.08-2.82c-.45-3.73.94-6.9,3.1-9.81C6,2.8,6.62,2.2,7.17,1.56Z"/></g></g></g></svg>