<svg xmlns="http://www.w3.org/2000/svg" viewBox="0 0 23.61 24.33"><defs><style>.cls-1{fill:#fb177d;}.cls-2{fill:#fefafc;}.cls-3{fill:#fefdfe;}</style></defs><g id="Capa_2" data-name="Capa 2"><g id="MONEDAS"><path class="cls-1" d="M1.9.43A.16.16,0,0,0,2,.57c0,.05,0,.12.12.12h0a.11.11,0,0,0,.07.09h0l0,0h0s0,0,0,.05h0A.14.14,0,0,0,2.36,1h0a.26.26,0,0,0,.13.16h0l0,0a.13.13,0,0,0,.07.09s0,.05,0,.05h0l0,.05a.24.24,0,0,0,.12.16l0,.05,0,.07A.23.23,0,0,0,3,1.79H3a.22.22,0,0,0,.11.14l0,.07a.45.45,0,0,0,.16.2h0s0,.08.08.09a.22.22,0,0,0,.09.12.11.11,0,0,0,.07.09.09.09,0,0,0,.06.07l0,0,.08.1h0a.13.13,0,0,0,.06.07.2.2,0,0,0,.1.12s0,0,0,0a.52.52,0,0,0,.18.23l0,0a.15.15,0,0,0,.11.13h0l0,.06,0,.06s0,.07.08.09l.09.13h0l0,0,0,0a.08.08,0,0,0,0,.07l0,0A.52.52,0,0,0,4.82,4l.07.08A.17.17,0,0,0,5,4.22l0,0,.1.15L8.69,8.37a.62.62,0,0,1,0,.92,1.51,1.51,0,0,1-1,.44,1,1,0,0,0-1,1,6.12,6.12,0,0,1-.1.86A8.52,8.52,0,0,1,6,13a1.56,1.56,0,0,0,.34,1.81,7.05,7.05,0,0,0,.77.58.89.89,0,0,1,.05,1.5,4,4,0,0,1-1.54.75c-.33.09-.33.09-.51-.22s-.21-.35-.32-.52a2.89,2.89,0,0,1-.32-.6,2.22,2.22,0,0,1,.34-2.39c.19-.23.38-.46.55-.69a4.33,4.33,0,0,0,1-2.28,1.85,1.85,0,0,1,.41-1.16.67.67,0,0,0,.11-1C6.42,8,6,7.22,5.58,6.46a7,7,0,0,0-1-1.4c-.08-.08-.12-.19-.25-.26.17.3.31.59.47.86C5.45,6.76,6.07,7.85,6.67,9a.39.39,0,0,1-.07.57,1.79,1.79,0,0,0-.45.9,9.76,9.76,0,0,1-.25,1.31,6.31,6.31,0,0,1-1.08,1.72A2.7,2.7,0,0,0,4,15a3,3,0,0,0,.51,2,2.73,2.73,0,0,1,.49,1,.11.11,0,0,0,.1.09,2.64,2.64,0,0,0,2.11-.23.2.2,0,0,1,.15-.05,4.57,4.57,0,0,1,1.21.3,3.63,3.63,0,0,1,1.07.92,1.63,1.63,0,0,0,.66.44.94.94,0,0,0,1.28-.93c0-.11,0-.23-.15-.3a.47.47,0,0,0,0,.12.62.62,0,0,1-.33.75.8.8,0,0,1-1.08-.42.78.78,0,0,1,.37-1.08,1.18,1.18,0,0,1,1,0,2,2,0,0,1,.94,1c.17.35.3.73.49,1.07a1.48,1.48,0,0,0,2.17.6c.16-.09.29-.23.46-.31a4,4,0,0,0,.82-.54,2.11,2.11,0,0,1,.45-.39,3,3,0,0,0,1.56-1.82,2.87,2.87,0,0,0-.87-3.2,11.22,11.22,0,0,0-1.58-1c-.38-.22-.84-.35-1-.85,0,0-.09-.07-.05-.12s.1,0,.15,0,.29.12.44.18a19.52,19.52,0,0,1,2,.91,2.54,2.54,0,0,1,1,.86,1.57,1.57,0,0,1,.21.82l.06,0,0-.07a2.93,2.93,0,0,0,.23-2.3,3,3,0,0,0-2-2,12.51,12.51,0,0,0-2.11-.42,3.63,3.63,0,0,1-1.62-.54c-.09-.08-.2-.14-.23-.28l-.15-.49h0c.06,0,.1,0,.14,0a3.62,3.62,0,0,0,1.55.62,15.38,15.38,0,0,0,1.92.16,1.79,1.79,0,0,1,1.51.85s0,0,.07,0a.76.76,0,0,0,0-.15,2.29,2.29,0,0,0-.07-.28,5,5,0,0,0-3-3.07,5.44,5.44,0,0,0-3-.23.26.26,0,0,1-.28-.11A6.15,6.15,0,0,0,11,5.84a3.4,3.4,0,0,0-2.31-1c-.16,0-.43-.12-.41.22a.08.08,0,0,1,0,0c-.22,0-.15.23-.15.36a3.32,3.32,0,0,0,.53,1.89,1,1,0,0,1,.18.38,1.71,1.71,0,0,1-.8-.5c-.62-.71-1.26-1.41-1.89-2.11a14,14,0,0,0-1-1.06s0,0,0,0S5.12,4,5.08,4h0L5,4a0,0,0,0,0,0,0s0,0,0,0l0-.06a1,1,0,0,0-.28-.3h0a.1.1,0,0,0-.08-.08h0c0-.09-.16-.15-.08-.27h0a.33.33,0,0,0,.19-.14h0A.24.24,0,0,0,4.85,3s0,0,0,0A.19.19,0,0,0,5,2.84l.09,0h0l.06,0a.16.16,0,0,0,.12-.08l.09-.06,0,0h0a.22.22,0,0,0,.13-.08h0s0,0,0,0,0,0,0,0a.11.11,0,0,0,.1-.07.22.22,0,0,0,.15-.08A.29.29,0,0,0,6,2.21H6a.2.2,0,0,0,.15-.09h0a1,1,0,0,0,.37-.2A14.67,14.67,0,0,1,8.76,1.1,11.69,11.69,0,0,1,17.23,2a11.59,11.59,0,0,1,5.2,5.36,11.53,11.53,0,0,1,1.15,5.86,11.44,11.44,0,0,1-1.75,5.5,11.64,11.64,0,0,1-4.77,4.35A11.44,11.44,0,0,1,13,24.27,11.8,11.8,0,0,1,1.72,18.66,11.29,11.29,0,0,1,0,13.47a11.64,11.64,0,0,1,2.15-7.8A11.35,11.35,0,0,1,3.67,4c.09-.09.13-.16.05-.28C3,2.6,2.37,1.51,1.7.42A.88.88,0,0,0,1.54.14l.12,0c0,.09.13.13.18.2S1.87.41,1.9.43Z"/><path class="cls-2" d="M4.51,3.21c-.08.12,0,.18.08.27l-.18.06s-.08,0-.08-.09.14,0,.11-.09S4.43,3.23,4.51,3.21Z"/><path class="cls-2" d="M6.55,1.92a1,1,0,0,1-.37.2A.48.48,0,0,1,6.55,1.92Z"/><path class="cls-2" d="M1.66.16l-.12,0S1.43.05,1.49,0,1.62.09,1.66.16Z"/><path class="cls-2" d="M4.12,3.18A.52.52,0,0,1,3.94,3,.28.28,0,0,1,4.12,3.18Z"/><path class="cls-2" d="M3.35,2.21A.45.45,0,0,1,3.19,2,.18.18,0,0,1,3.35,2.21Z"/><path class="cls-2" d="M4.7,3.07a.33.33,0,0,1-.19.14C4.53,3.12,4.6,3.08,4.7,3.07Z"/><path class="cls-2" d="M2.49,1.14A.26.26,0,0,1,2.36,1C2.46,1,2.49,1.05,2.49,1.14Z"/><path class="cls-2" d="M5,2.84a.19.19,0,0,1-.14.1C4.87,2.83,4.93,2.82,5,2.84Z"/><path class="cls-2" d="M3,1.79a.23.23,0,0,1-.12-.15C3,1.65,3,1.73,3,1.79Z"/><path class="cls-2" d="M4.25,3.33a.15.15,0,0,1-.11-.13C4.22,3.21,4.26,3.25,4.25,3.33Z"/><path class="cls-2" d="M2.12.69C2,.69,2,.62,2,.57S2.12.6,2.12.69Z"/><path class="cls-2" d="M3.92,2.92a.2.2,0,0,1-.1-.12C3.92,2.79,3.93,2.85,3.92,2.92Z"/><path class="cls-2" d="M4.85,3a.24.24,0,0,1-.15.11C4.72,3,4.78,3,4.85,3Z"/><path class="cls-2" d="M3.14,1.94A.22.22,0,0,1,3,1.8.11.11,0,0,1,3.14,1.94Z"/><path class="cls-2" d="M6.17,2.12A.2.2,0,0,1,6,2.21C6,2.11,6.11,2.14,6.17,2.12Z"/><path class="cls-2" d="M6,2.21a.29.29,0,0,1-.16.09C5.87,2.19,6,2.22,6,2.21Z"/><path class="cls-2" d="M2.36,1A.14.14,0,0,1,2.27.87C2.36.85,2.36.92,2.36,1Z"/><path class="cls-2" d="M5.53,2.5a.22.22,0,0,1-.13.08C5.41,2.5,5.47,2.5,5.53,2.5Z"/><path class="cls-2" d="M5.28,2.66a.16.16,0,0,1-.12.08C5.16,2.67,5.22,2.67,5.28,2.66Z"/><path class="cls-2" d="M3.59,2.51a.11.11,0,0,1-.07-.09A.07.07,0,0,1,3.59,2.51Z"/><path class="cls-2" d="M5.71,2.38a.11.11,0,0,1-.1.07C5.62,2.39,5.66,2.38,5.71,2.38Z"/><path class="cls-2" d="M2.19.78A.11.11,0,0,1,2.12.69S2.2.72,2.19.78Z"/><path class="cls-2" d="M3.43,2.3c-.05,0-.06,0-.08-.09A.08.08,0,0,1,3.43,2.3Z"/><path class="cls-2" d="M1.9.43s0,0-.06-.07A.07.07,0,0,1,1.9.43Z"/><path class="cls-2" d="M2.64,1.32s0,0,0-.05A0,0,0,0,1,2.64,1.32Z"/><path class="cls-2" d="M2.23.82l0,0Z"/><path class="cls-2" d="M2.27.87s0,0,0-.05Z"/><path class="cls-2" d="M2.53,1.18l0,0Z"/><path class="cls-2" d="M2.69,1.36l0-.05Z"/><path class="cls-2" d="M2.85,1.57l0-.05Z"/><path class="cls-2" d="M4.29,3.39l0-.06A.06.06,0,0,1,4.29,3.39Z"/><path class="cls-2" d="M5.58,2.46s0,0,0,0Z"/><path class="cls-2" d="M3.68,2.62l0,0Z"/><polygon class="cls-2" points="5.09 2.79 5.09 2.8 5.09 2.79 5.09 2.79"/><path class="cls-2" d="M5.4,2.58l0,0Z"/><polygon class="cls-2" points="3.76 2.73 3.75 2.73 3.76 2.72 3.76 2.73"/><path class="cls-2" d="M5.16,4.09a14,14,0,0,1,1,1.06c.63.7,1.27,1.4,1.89,2.11a1.71,1.71,0,0,0,.8.5,1,1,0,0,0-.18-.38,3.32,3.32,0,0,1-.53-1.89c0-.13-.07-.31.15-.36a.08.08,0,0,0,0,0c0-.34.25-.22.41-.22a3.4,3.4,0,0,1,2.31,1,6.15,6.15,0,0,1,.61.64.26.26,0,0,0,.28.11,5.44,5.44,0,0,1,3,.23,5,5,0,0,1,3,3.07,2.29,2.29,0,0,1,.07.28.76.76,0,0,1,0,.15s-.05,0-.07,0a1.79,1.79,0,0,0-1.51-.85,15.38,15.38,0,0,1-1.92-.16A3.62,3.62,0,0,1,13,8.67s-.08-.08-.14,0V8.58h0l0,.05.15.49c0,.14.14.2.23.28a3.63,3.63,0,0,0,1.62.54,12.51,12.51,0,0,1,2.11.42,3,3,0,0,1,2,2,2.93,2.93,0,0,1-.23,2.3l0,.07-.06,0a1.57,1.57,0,0,0-.21-.82,2.54,2.54,0,0,0-1-.86,19.52,19.52,0,0,0-2-.91c-.15-.06-.29-.13-.44-.18s-.12,0-.15,0,0,.08.05.12c.13.5.59.63,1,.85a11.22,11.22,0,0,1,1.58,1,2.87,2.87,0,0,1,.87,3.2A3,3,0,0,1,16.75,19a2.11,2.11,0,0,0-.45.39,4,4,0,0,1-.82.54c-.17.08-.3.22-.46.31a1.48,1.48,0,0,1-2.17-.6c-.19-.34-.32-.72-.49-1.07a2,2,0,0,0-.94-1,1.18,1.18,0,0,0-1,0,.78.78,0,0,0-.37,1.08.8.8,0,0,0,1.08.42.62.62,0,0,0,.33-.75.47.47,0,0,1,0-.12c.14.07.14.19.15.3a.94.94,0,0,1-1.28.93,1.63,1.63,0,0,1-.66-.44A3.63,3.63,0,0,0,8.61,18a4.57,4.57,0,0,0-1.21-.3.2.2,0,0,0-.15.05A2.64,2.64,0,0,1,5.14,18,.11.11,0,0,1,5,17.9a2.73,2.73,0,0,0-.49-1A3,3,0,0,1,4,15a2.7,2.7,0,0,1,.78-1.5A6.31,6.31,0,0,0,5.9,11.73a9.76,9.76,0,0,0,.25-1.31,1.79,1.79,0,0,1,.45-.9A.39.39,0,0,0,6.67,9c-.6-1.1-1.22-2.19-1.82-3.29-.16-.27-.3-.56-.47-.86.13.07.17.18.25.26a7,7,0,0,1,1,1.4C6,7.22,6.42,8,6.84,8.74a.67.67,0,0,1-.11,1,1.85,1.85,0,0,0-.41,1.16,4.33,4.33,0,0,1-1,2.28c-.17.23-.36.46-.55.69a2.22,2.22,0,0,0-.34,2.39,2.89,2.89,0,0,0,.32.6c.11.17.22.34.32.52s.18.31.51.22a4,4,0,0,0,1.54-.75.89.89,0,0,0-.05-1.5,7.05,7.05,0,0,1-.77-.58A1.56,1.56,0,0,1,6,13a8.52,8.52,0,0,0,.55-1.37,6.12,6.12,0,0,0,.1-.86,1,1,0,0,1,1-1,1.51,1.51,0,0,0,1-.44.62.62,0,0,0,0-.92L5.15,4.42l-.1-.15C5.19,4.28,5.15,4.17,5.16,4.09ZM9.71,18.57l0,0s0,0,0-.06,0-.21,0-.31a1,1,0,0,1,.65-.95,1.46,1.46,0,0,1,1.4.2,3,3,0,0,1,1,1.53,2.45,2.45,0,0,0,.29.55,1,1,0,0,0,0-.18c-.09-.39-.12-.78-.19-1.16a2,2,0,0,0-1.78-1.72A3.83,3.83,0,0,0,8.74,17a4.06,4.06,0,0,0-.82.55l.25.07a2.56,2.56,0,0,1,1.13.59Zm3.64-8.65a.91.91,0,0,0,.15.48,2.7,2.7,0,0,0,1.11,1c.7.39,1.46.64,2.18,1a4.61,4.61,0,0,1,1.7,1.08l.19.22,0-.1s0-.09,0-.14a2.54,2.54,0,0,0-1.12-2.33,4.9,4.9,0,0,0-2.07-.7A8.21,8.21,0,0,1,13.35,9.92ZM11.92,7a6.7,6.7,0,0,0,.45.6A3.36,3.36,0,0,0,14.78,9a14.23,14.23,0,0,1,2.43.27C16.56,7.6,13.65,6.35,11.92,7Zm5.45,11.08a2.52,2.52,0,0,0,.69-1.33,2.42,2.42,0,0,0-.78-2.41,10.9,10.9,0,0,0-1.86-1.16c-.15-.08-.13,0-.13.12a2.34,2.34,0,0,0,.25.93,8.29,8.29,0,0,0,.71,1.17,6.87,6.87,0,0,1,.95,1.72A4.39,4.39,0,0,1,17.37,18.05ZM8.22,5.69a3.36,3.36,0,0,0,.3,1.21,3.06,3.06,0,0,0,2.1,1.8c.1,0,.23.08.28,0s-.07-.15-.12-.22l-.11-.14a3.4,3.4,0,0,1-.59-1.45,1.81,1.81,0,0,0-1.5-1.54C8.23,5.25,8.22,5.25,8.22,5.69Zm5.93,6.44c0,.11.06.21.08.31a1.77,1.77,0,0,1-1.07,2.22,3.63,3.63,0,0,1-.92.22,6.55,6.55,0,0,0-1.63.38,3.27,3.27,0,0,0-.59.33.91.91,0,0,0,.21,0A7.3,7.3,0,0,1,12,15.33a4.1,4.1,0,0,0,1.35-.21A1.83,1.83,0,0,0,14.15,12.13Zm-4.61-.66a1.81,1.81,0,0,0,.76-.23.49.49,0,0,0,.21-.67.86.86,0,0,0-.93-.49.84.84,0,0,0-.69.71C8.8,11.23,9,11.47,9.54,11.47Z"/><path class="cls-3" d="M5.16,4.09c0,.08,0,.19-.11.18l0,0c0-.07,0-.12-.11-.11L4.82,4h0a.52.52,0,0,1-.16-.17l0,0a.08.08,0,0,1,0-.07l0,0,0,0h0l-.09-.13.18-.06h0c0,.06,0,.09.08.08h0c0,.15.09.3.28.3l0,.06,0,0A0,0,0,0,1,5,4a.06.06,0,0,0,0,.06h0a.07.07,0,0,0,.06.06S5.16,4.08,5.16,4.09Z"/><path class="cls-2" d="M5,3.86c-.19,0-.24-.15-.28-.3A1,1,0,0,1,5,3.86Z"/><path class="cls-2" d="M4.89,4.11c.09,0,.11,0,.11.11A.17.17,0,0,1,4.89,4.11Z"/><path class="cls-2" d="M4.67,3.56c-.06,0-.09,0-.08-.08A.1.1,0,0,1,4.67,3.56Z"/><path class="cls-2" d="M5.14,4.07A.07.07,0,0,1,5.08,4S5.14,4,5.14,4.07Z"/><path class="cls-2" d="M5.09,4A.06.06,0,0,1,5,4Z"/><path class="cls-2" d="M5,3.94l0,0S5,3.92,5,3.94Z"/><path class="cls-2" d="M4.63,3.82l0,0Z"/><path class="cls-2" d="M4.53,3.7l0,0Z"/><path class="cls-2" d="M4.5,3.67h0Z"/><path class="cls-1" d="M13.35,9.92a8.21,8.21,0,0,0,2.2.49,4.9,4.9,0,0,1,2.07.7,2.54,2.54,0,0,1,1.12,2.33c0,.05,0,.1,0,.14l0,.1-.19-.22a4.61,4.61,0,0,0-1.7-1.08c-.72-.33-1.48-.58-2.18-1a2.7,2.7,0,0,1-1.11-1A.91.91,0,0,1,13.35,9.92Z"/><path class="cls-1" d="M11.92,7c1.73-.62,4.64.63,5.29,2.28A14.23,14.23,0,0,0,14.78,9a3.36,3.36,0,0,1-2.41-1.41A6.7,6.7,0,0,1,11.92,7Z"/><path class="cls-1" d="M17.37,18.05a4.39,4.39,0,0,0-.17-1,6.87,6.87,0,0,0-.95-1.72,8.29,8.29,0,0,1-.71-1.17,2.34,2.34,0,0,1-.25-.93c0-.07,0-.2.13-.12a10.9,10.9,0,0,1,1.86,1.16,2.42,2.42,0,0,1,.78,2.41A2.52,2.52,0,0,1,17.37,18.05Z"/><path class="cls-1" d="M9.71,18.57l-.41-.38a2.56,2.56,0,0,0-1.13-.59l-.25-.07A4.06,4.06,0,0,1,8.74,17a3.83,3.83,0,0,1,2.39-.49,2,2,0,0,1,1.78,1.72c.07.38.1.77.19,1.16a1,1,0,0,1,0,.18,2.45,2.45,0,0,1-.29-.55,3,3,0,0,0-1-1.53,1.46,1.46,0,0,0-1.4-.2,1,1,0,0,0-.65.95c0,.1,0,.21,0,.31Z"/><path class="cls-1" d="M8.22,5.69c0-.44,0-.44.36-.36a1.81,1.81,0,0,1,1.5,1.54,3.4,3.4,0,0,0,.59,1.45l.11.14c.05.07.17.13.12.22s-.18,0-.28,0a3.06,3.06,0,0,1-2.1-1.8A3.36,3.36,0,0,1,8.22,5.69Z"/><path class="cls-1" d="M14.15,12.13a1.83,1.83,0,0,1-.83,3,4.1,4.1,0,0,1-1.35.21,7.3,7.3,0,0,0-1.74.24.91.91,0,0,1-.21,0,3.27,3.27,0,0,1,.59-.33,6.55,6.55,0,0,1,1.63-.38,3.63,3.63,0,0,0,.92-.22,1.77,1.77,0,0,0,1.07-2.22C14.21,12.34,14.18,12.24,14.15,12.13Z"/><path class="cls-1" d="M9.54,11.47c-.54,0-.74-.24-.65-.68a.84.84,0,0,1,.69-.71.86.86,0,0,1,.93.49.49.49,0,0,1-.21.67A1.81,1.81,0,0,1,9.54,11.47Zm.18-1.12a.31.31,0,0,0-.31.32c0,.13.1.18.23.18s.37-.11.38-.23A.29.29,0,0,0,9.72,10.35Z"/><path class="cls-1" d="M12.81,8.63l0-.05h0v.05Z"/><path class="cls-1" d="M9.75,18.53s0,0,0,.06l0,0Z"/><path class="cls-2" d="M9.72,10.35a.29.29,0,0,1,.3.27c0,.12-.19.23-.38.23s-.22,0-.23-.18A.31.31,0,0,1,9.72,10.35Z"/></g></g></svg>