<svg xmlns="http://www.w3.org/2000/svg" viewBox="0 0 23.86 23.86"><defs><style>.cls-1{fill:#2775ca;}.cls-2{fill:#fff;}</style></defs><g id="Capa_2" data-name="Capa 2"><g id="MONEDAS"><g id="_5VqFfg" data-name="5VqFfg"><path class="cls-1" d="M0,12.3V11.24c.12-.63.22-1.26.36-1.89A11.79,11.79,0,0,1,10.06.24L11.77,0h.32a2.2,2.2,0,0,0,.55.13,10.44,10.44,0,0,1,4.83,1.33,11.58,11.58,0,0,1,6.15,8.72c.09.56.16,1.13.24,1.7v.31a3.82,3.82,0,0,0-.14.56c-.09.6-.11,1.22-.24,1.82a11.79,11.79,0,0,1-9.69,9l-1.7.25h-.64L10,23.62A11.73,11.73,0,0,1,.24,13.79ZM14.14,10c.9,0,1-.24.73-1a2.16,2.16,0,0,0-1.44-1.38c-.64-.15-.69-.49-.67-1,0-.21-.1-.6-.22-.63a2.48,2.48,0,0,0-1.18,0c-.15,0-.25.51-.25.78,0,.42-.09.65-.55.79a2.44,2.44,0,0,0-1.9,2.53,2.31,2.31,0,0,0,2.08,2.25c.7.16,1.41.27,2.11.46a.86.86,0,0,1,.7.82A1.16,1.16,0,0,1,13,14.8a1.89,1.89,0,0,1-2.79-.91,1,1,0,0,0-1.31-.42c-.48.16-.4.52-.3.87a2.6,2.6,0,0,0,2,1.91c.46.12.66.33.58.8a1.05,1.05,0,0,0,0,.47c.07.16.21.4.33.41,1,.08,1.42.18,1.34-1a.58.58,0,0,1,.5-.7,2.7,2.7,0,0,0,1.92-3.17,2.38,2.38,0,0,0-2.11-1.87c-.7-.16-1.43-.24-2.11-.45a1,1,0,0,1-.38-1.63,1.76,1.76,0,0,1,2.58.35C13.48,9.93,13.76,10.09,14.14,10ZM9.79,4.14c0-.75-.2-1-.71-.8A8.93,8.93,0,0,0,3,13.07,8.73,8.73,0,0,0,8.65,20.3c.28.12.83.21.9.09a1.57,1.57,0,0,0,.19-1.08,1.27,1.27,0,0,0-.69-.63,7.3,7.3,0,0,1-4.42-7.54,7.07,7.07,0,0,1,4.49-6C9.6,4.92,9.87,4.63,9.79,4.14ZM21,11.93c-.05-.51-.1-1-.16-1.52a9.12,9.12,0,0,0-6.09-7.1.45.45,0,0,0-.62.31,1.15,1.15,0,0,0,.66,1.56,7.33,7.33,0,0,1,4.39,7.88,7.24,7.24,0,0,1-4.31,5.63c-.74.34-.86.51-.78,1.34,0,.49.27.64.74.48A9.11,9.11,0,0,0,21,11.93Z"/><path class="cls-2" d="M14.14,10c-.38.07-.66-.09-.87-.54a1.76,1.76,0,0,0-2.58-.35,1,1,0,0,0,.38,1.63c.68.21,1.41.29,2.11.45a2.38,2.38,0,0,1,2.11,1.87,2.7,2.7,0,0,1-1.92,3.17.58.58,0,0,0-.5.7c.08,1.16-.37,1.06-1.34,1-.12,0-.26-.25-.33-.41a1.05,1.05,0,0,1,0-.47c.08-.47-.12-.68-.58-.8a2.6,2.6,0,0,1-2-1.91c-.1-.35-.18-.71.3-.87a1,1,0,0,1,1.31.42A1.89,1.89,0,0,0,13,14.8a1.16,1.16,0,0,0,.54-1.18.86.86,0,0,0-.7-.82c-.7-.19-1.41-.3-2.11-.46a2.31,2.31,0,0,1-2.08-2.25,2.44,2.44,0,0,1,1.9-2.53c.46-.14.54-.37.55-.79,0-.27.1-.73.25-.78a2.48,2.48,0,0,1,1.18,0c.12,0,.23.42.22.63,0,.53,0,.87.67,1A2.16,2.16,0,0,1,14.87,9C15.19,9.78,15,10,14.14,10Z"/><path class="cls-2" d="M9.79,4.14c.08.49-.19.78-.67,1a7.07,7.07,0,0,0-4.49,6,7.3,7.3,0,0,0,4.42,7.54,1.27,1.27,0,0,1,.69.63,1.57,1.57,0,0,1-.19,1.08c-.07.12-.62,0-.9-.09A8.73,8.73,0,0,1,3,13.07,8.93,8.93,0,0,1,9.08,3.34C9.59,3.17,9.79,3.39,9.79,4.14Z"/><path class="cls-2" d="M21,11.93a9.11,9.11,0,0,1-6.17,8.58c-.47.16-.7,0-.74-.48-.08-.83,0-1,.78-1.34a7.24,7.24,0,0,0,4.31-5.63,7.33,7.33,0,0,0-4.39-7.88,1.15,1.15,0,0,1-.66-1.56.45.45,0,0,1,.62-.31,9.12,9.12,0,0,1,6.09,7.1C20.88,10.92,20.93,11.42,21,11.93Z"/></g></g></g></svg>