<svg xmlns="http://www.w3.org/2000/svg" viewBox="0 0 23.99 23.38"><defs><style>.cls-1{fill:#2ca07f;}</style></defs><g id="Capa_2" data-name="Capa 2"><g id="MONEDAS"><g id="ZavnyK"><path class="cls-1" d="M24,11.91A11.91,11.91,0,0,1,12,23.38,11.74,11.74,0,0,1,0,11.59,11.81,11.81,0,0,1,12.09,0,11.78,11.78,0,0,1,24,11.91Zm-11.92-6h0c-1.68,0-3.36,0-5,0-.43,0-.63.12-.6.57s0,1.13,0,1.7c0,.35.1.51.5.49.81,0,1.61,0,2.42,0,1.17,0,1.15,0,1.14,1.16,0,.36-.12.47-.45.5-.65,0-1.3.09-1.94.18a8.84,8.84,0,0,0-2.81.73c-.26.14-.57.3-.57.63s.28.55.57.7a5.77,5.77,0,0,0,1.45.49,22.35,22.35,0,0,0,3.05.41c.72,0,.72.08.72.78,0,1.43,0,2.86,0,4.29,0,.38.12.54.53.52s1.1,0,1.65,0c.91,0,.9.16.89-.9,0-1.38,0-2.76,0-4.14,0-.36.11-.5.5-.51a10.33,10.33,0,0,0,1.47-.16,11.06,11.06,0,0,0,3.22-.77c.31-.15.56-.33.57-.69s-.25-.49-.52-.62l-.37-.17a12.21,12.21,0,0,0-3.74-.71c-1.15-.1-1.14-.07-1.14-1.18,0-.41.16-.56.58-.55,1,0,2,0,3,0,.39,0,.51-.13.5-.49,0-.57,0-1.13,0-1.7s-.13-.58-.58-.57C15.39,5.93,13.73,5.92,12.07,5.92Z"/><path class="cls-1" d="M12.14,12.52c.36,0,.95.2,1.28-.1s.09-.88.11-1.34c0-.28.05-.53.41-.48a15.21,15.21,0,0,1,4.07.73c.21.08.44.16.45.42s-.22.36-.41.45a7.75,7.75,0,0,1-2.68.61,28.31,28.31,0,0,1-6.76,0,6.11,6.11,0,0,1-2.69-.63c-.15-.1-.37-.15-.36-.39s.25-.33.45-.42a11.61,11.61,0,0,1,3.4-.68c1.37-.18,1.1,0,1.11,1s0,.86.89.87Z"/></g></g></g></svg>