<svg xmlns="http://www.w3.org/2000/svg" viewBox="0 0 23.75 23.75"><defs><style>.cls-1{fill:#627ee9;}.cls-2{fill:#bfcaf6;}.cls-3{fill:#fdfdfe;}.cls-4{fill:#c0cbf6;}.cls-5{fill:#8097ed;}.cls-6{fill:#fcfcfe;}</style></defs><g id="Capa_2" data-name="Capa 2"><g id="MONEDAS"><g id="WwNOP7"><path class="cls-1" d="M10.56,0H13.2c.07.14.21.09.32.11a11.75,11.75,0,0,1,9.76,8.48c.21.64.32,1.31.47,2V13.3c-.18.18-.14.42-.18.63a11.68,11.68,0,0,1-8.31,9.31c-.67.22-1.38.34-2.06.51H10.45c-.15-.19-.39-.13-.58-.17A11.87,11.87,0,0,1,.25,14.3a2.63,2.63,0,0,0-.25-1V10.45c.19-.15.13-.39.17-.58A11.75,11.75,0,0,1,8.59.47C9.23.27,9.9.16,10.56,0Zm7,13.29c-.17.08-.34.16-.51.26l-4.77,2.73L11.68,16,7,13.29c0-.07-.1-.11-.15-.06s0,.09.07.14l4.42,6.12a6.71,6.71,0,0,0,.92,1.2,1.81,1.81,0,0,0,.5-.6c.89-1.22,1.78-2.43,2.65-3.66.73-1,1.52-2,2.18-3.09v-.08Zm.12-1.37h0c0-.22-.11-.36-.21-.52C16,9.14,14.64,6.86,13.24,4.6a7.75,7.75,0,0,0-1-1.53.66.66,0,0,0-.14.15L7,11.59c-.06.1-.15.2-.11.33h0c-.16.06-.05.11,0,.16.91.66,1.91,1.16,2.88,1.73a21.11,21.11,0,0,0,2.51,1.39,2,2,0,0,0,.34-.13c1.18-.68,2.36-1.35,3.52-2.07a4.72,4.72,0,0,0,1.52-1s0,0,0,0S17.64,12,17.63,11.92Z"/><path class="cls-2" d="M12.24,3.07a7.75,7.75,0,0,1,1,1.53c1.4,2.26,2.79,4.54,4.18,6.81.1.16.25.3.21.52l-1.25-.53c-1.38-.57-2.71-1.28-4.13-1.79l0,0Z"/><path class="cls-3" d="M12.24,3.07q0,3.26,0,6.51l-.87.37-4.51,2c0-.13,0-.23.11-.33L12.1,3.22A.66.66,0,0,1,12.24,3.07Z"/><path class="cls-4" d="M6.84,11.92l4.51-2,.87-.37,0,0V15.2a21.11,21.11,0,0,1-2.51-1.39c-1-.57-2-1.07-2.88-1.73v-.16Z"/><path class="cls-5" d="M12.25,15.2V9.61c1.42.51,2.75,1.22,4.13,1.79l1.25.53h0V12a4.72,4.72,0,0,1-1.52,1c-1.16.72-2.34,1.39-3.52,2.07A2,2,0,0,1,12.25,15.2Z"/><path class="cls-6" d="M7,13.29,11.68,16l.55.31v4.41a6.71,6.71,0,0,1-.92-1.2L6.9,13.37Z"/><path class="cls-2" d="M12.24,20.69V16.28L17,13.55c.17-.1.34-.18.51-.26l.06.05c-.66,1.08-1.45,2.06-2.18,3.09-.87,1.23-1.76,2.44-2.65,3.66A1.81,1.81,0,0,1,12.24,20.69Z"/><path class="cls-6" d="M6.9,13.37s-.13-.08-.07-.14.12,0,.15.06Z"/><path class="cls-3" d="M6.86,11.92v.16C6.81,12,6.7,12,6.86,11.92Z"/><path class="cls-2" d="M17.63,12v-.1s0,.05,0,.07S17.64,12,17.63,12Z"/><path class="cls-2" d="M17.51,13.29l.07,0s0,.06,0,.08Z"/></g></g></g></svg>