<svg xmlns="http://www.w3.org/2000/svg" viewBox="0 0 24 24"><defs><style>.cls-1{fill:#fcfdfd;}.cls-2{fill:#048b82;}.cls-3{fill:#068c83;}</style></defs><g id="Capa_2" data-name="Capa 2"><g id="MONEDAS"><g id="SKfble"><circle class="cls-1" cx="12" cy="12" r="12"/><path class="cls-2" d="M22.21,8.34c-.14.07-.12.22-.15.33a3.45,3.45,0,0,1-3.22,2.57,6.23,6.23,0,0,0-5.09,2.53A5.76,5.76,0,0,0,12.61,17c0,.39-.25.28-.45.29s-.4.07-.42-.29a6,6,0,0,0-5-5.66c-.62-.11-1.27,0-1.9-.2a3.51,3.51,0,0,1-2.6-3c0-.16-.19-.45.18-.44S3,7.56,3,8.07a2.62,2.62,0,0,0,2.13,2.3c.53.09,1.07.07,1.6.16a6.77,6.77,0,0,1,5.3,4.16c0,.06,0,.14.14.17a6.92,6.92,0,0,1,2.21-3,6.69,6.69,0,0,1,4-1.44A2.73,2.73,0,0,0,21.35,8c0-.18.07-.25.25-.23s.43-.06.61.1Z"/><path class="cls-3" d="M6.34,12.09a6.06,6.06,0,1,0,11.74.36c0-.15-.19-.39.15-.39s.56-.22.67.25A6.88,6.88,0,1,1,5.39,15a7.26,7.26,0,0,1,0-2.46c.07-.41.23-.53.61-.44Z"/><path class="cls-3" d="M4.51,7.66A1.25,1.25,0,0,0,5.9,8.93a8.2,8.2,0,0,1,6,2.72c.21.23.29.27.53,0a8.25,8.25,0,0,1,6-2.74,1.23,1.23,0,0,0,1.38-1.39V6.68c0-.45.2-.6.64-.47a.16.16,0,0,1,.13.18,12.94,12.94,0,0,1,0,1.65,1.94,1.94,0,0,1-2,1.63A7.72,7.72,0,0,0,12.2,13.2c-.25-.3-.47-.61-.72-.89A7.49,7.49,0,0,0,5.85,9.68,1.93,1.93,0,0,1,4,8.54a4.21,4.21,0,0,1-.13-2.31c.06,0,.11.07.16.06.41-.06.45.17.44.5A1.53,1.53,0,0,0,4.51,7.66Z"/><path class="cls-3" d="M5.45,4.69H6c0,.55,0,1.09,0,1.64a1.84,1.84,0,0,0,.07.9c0,.19.16.16.28.17a9.83,9.83,0,0,1,5.61,2.17c.21.17.32.15.53,0A9.78,9.78,0,0,1,18,7.41c.27,0,.29-.12.28-.33,0-.7,0-1.39,0-2.09,0-.34.16-.32.39-.31s.41-.06.39.3c0,.85,0,1.7,0,2.55,0,.49-.09.6-.59.62a9.14,9.14,0,0,0-5.56,2c-.25.2-.46.59-.74.56s-.48-.37-.72-.56a9,9,0,0,0-5.31-2c-.82,0-.85-.06-.85-.9s0-1.45,0-2.17c0-.13-.08-.28.06-.39S5.42,4.73,5.45,4.69Z"/><path class="cls-3" d="M14.6,7.37a2.25,2.25,0,0,1-1.82.41,2.36,2.36,0,0,0-1.18,0,2.25,2.25,0,0,1-1.82-.4A6.38,6.38,0,0,1,14.6,7.37Z"/><path class="cls-3" d="M9.85,14.06l.18.24c.39.57.34.71-.33.95A1.47,1.47,0,0,1,8,14.71,1.49,1.49,0,0,1,8,13c.08-.1.16-.28.32-.21a1.69,1.69,0,0,1,.62.43c.06.08,0,.08-.09.11-.37.38-.39.79-.06,1S9.51,14.51,9.85,14.06Z"/><path class="cls-3" d="M14.51,14.06a.68.68,0,0,0,.77.41.62.62,0,0,0,.5-.46.57.57,0,0,0-.21-.64c-.25-.17-.14-.23,0-.35.52-.37.68-.33.93.25A1.53,1.53,0,0,1,16.11,15a1.51,1.51,0,0,1-1.74.13c-.29-.17-.42-.36-.15-.66A3,3,0,0,0,14.51,14.06Z"/><path class="cls-2" d="M6,7.23A1.84,1.84,0,0,1,6,6.33c0-.55,0-1.09,0-1.64.12,0,.09.12.09.2C6.05,5.67,6,6.45,6,7.23Z"/><path class="cls-2" d="M4.51,7.66a1.53,1.53,0,0,1-.08-.87c0-.33,0-.56-.44-.5-.05,0-.1,0-.16-.06.69-.06.69-.06.69.59C4.52,7.1,4.51,7.38,4.51,7.66Z"/><path class="cls-2" d="M5.45,4.69s0,0-.09,0Z"/></g></g></g></svg>