<?xml version="1.0" encoding="utf-8"?>
<!-- Generator: Adobe Illustrator 25.0.1, SVG Export Plug-In . SVG Version: 6.00 Build 0)  -->
<svg version="1.1" id="Capa_1"
	xmlns="http://www.w3.org/2000/svg"
	xmlns:xlink="http://www.w3.org/1999/xlink" x="0px" y="0px" viewBox="0 0 886.1 237.7" style="enable-background:new 0 0 886.1 237.7;" xml:space="preserve">
	<style type="text/css">
	.st0{fill:url(#SVGID_1_);}
	.st1{fill:url(#SVGID_2_);}
	.st2{fill:url(#SVGID_3_);}
	.st3{fill:url(#SVGID_4_);}
	.st4{fill:url(#SVGID_5_);}
	.st5{fill:url(#SVGID_6_);}
	.st6{fill:#FEBC31;}
	.st7{fill:#1D1511;}
	</style>
	<g>
		<g id="_x30_fjlZZ_14_">
			<g>

				<linearGradient id="SVGID_1_" gradientUnits="userSpaceOnUse" x1="133.0903" y1="129.966" x2="22.6986" y2="66.2313" gradientTransform="matrix(1 0 0 -1 0 242)">
					<stop offset="0" style="stop-color:#FE9700"/>
					<stop offset="1" style="stop-color:#FFE263"/>
				</linearGradient>
				<path class="st0" d="M134.4,205.5c-28.4,0-54.3,0.1-80.2-0.2c-2.8,0-6.5-2.4-8.3-4.8c-15.5-21.1-30.8-42.4-45.8-63.9
				c-1.4-2-1.4-6.7-0.1-8.8c11.4-17.7,23-35.2,35.1-52.5c1.7-2.5,6-4.5,9.1-4.6c18.2-0.4,36.3-0.4,54.5,0c2.9,0.1,6.6,2.1,8.4,4.4
				c8.3,10.7,16.1,21.8,23.7,33c1.3,1.9,2.1,5.8,1,7.4c-6.9,10.2-14.3,20-22.2,30.9c-6.4-8.8-12.1-16.7-17.8-24.6
				c-7.4-10.3-7.6-10.4-22.9-7.8C90.6,144.4,111.9,174.1,134.4,205.5z"/>

				<linearGradient id="SVGID_2_" gradientUnits="userSpaceOnUse" x1="119.8575" y1="119.8" x2="220.2" y2="119.8" gradientTransform="matrix(1 0 0 -1 0 242)">
					<stop offset="0" style="stop-color:#FE9700"/>
					<stop offset="1" style="stop-color:#FFE263"/>
				</linearGradient>
				<path class="st1" d="M196,50.8c8.7,13.1,16.4,24.5,24.2,36.2c-25.5,35.4-50.7,70.5-76.7,106.6c-8.2-11.3-15.8-21.7-23.1-32.3
				c-0.8-1.2-0.7-4.1,0.2-5.3C145.3,121.3,170.2,86.7,196,50.8z"/>

				<linearGradient id="SVGID_3_" gradientUnits="userSpaceOnUse" x1="152.5" y1="89.4056" x2="248.8049" y2="89.4056" gradientTransform="matrix(1 0 0 -1 0 242)">
					<stop offset="0" style="stop-color:#FE9700"/>
					<stop offset="1" style="stop-color:#FFE263"/>
				</linearGradient>
				<path class="st2" d="M152.5,205.4c26.1-36.3,50.7-70.5,76.1-105.7c7.1,10.6,13.7,20,19.7,29.8c1,1.5,0.4,5.1-0.8,6.8
				c-15.5,21.9-31.1,43.6-46.9,65.2c-1.4,1.9-4.1,3.8-6.2,3.9C181.2,205.6,168,205.4,152.5,205.4z"/>

				<linearGradient id="SVGID_4_" gradientUnits="userSpaceOnUse" x1="117.9139" y1="189.5877" x2="185.7728" y2="189.5877" gradientTransform="matrix(1 0 0 -1 0 242)">
					<stop offset="0" style="stop-color:#FE9700"/>
					<stop offset="1" style="stop-color:#FFE263"/>
				</linearGradient>
				<path class="st3" d="M142.8,100.2c-8.7-12.2-16.9-23.3-24.5-34.7c-0.9-1.4-0.1-4.9,1.1-6.7c11.7-16.7,23.7-33.3,35.7-49.8
				c4.3-5.9,8.7-5.8,12.9,0.1c5.8,8.2,11.4,16.6,16.7,25.2c1.1,1.7,1.5,5.2,0.5,6.7C171.6,60.5,157.6,79.8,142.8,100.2z"/>

				<linearGradient id="SVGID_5_" gradientUnits="userSpaceOnUse" x1="105.8437" y1="190.8995" x2="81.4853" y2="233.0896" gradientTransform="matrix(1 0 0 -1 0 242)">
					<stop offset="0" style="stop-color:#FE9700"/>
					<stop offset="1" style="stop-color:#FFE263"/>
				</linearGradient>
				<path class="st4" d="M47.6,56c7.1-10.6,14.1-18.7,18.5-28.1C75,8.5,89.1,1.5,109.9,4.8c9.2,1.5,18.8,0.2,30.4,0.2
				c-7.2,10.2-14.4,18.1-19.1,27.4c-10,19.6-24.6,27.7-46.5,23.9C66.8,54.8,58.3,56,47.6,56z"/>
			</g>
		</g>

		<linearGradient id="SVGID_6_" gradientUnits="userSpaceOnUse" x1="50.9" y1="10.6" x2="886.1" y2="10.6" gradientTransform="matrix(1 0 0 -1 0 242)">
			<stop offset="0" style="stop-color:#FE9700"/>
			<stop offset="0.2098" style="stop-color:#FCB246"/>
			<stop offset="0.4197" style="stop-color:#FACA85"/>
			<stop offset="0.6107" style="stop-color:#F9DEB7"/>
			<stop offset="0.7772" style="stop-color:#F8EBDA"/>
			<stop offset="0.9126" style="stop-color:#F7F4F0"/>
			<stop offset="1" style="stop-color:#F7F7F8"/>
		</linearGradient>
		<path class="st5" d="M879.8,237.7H57.2c-3.5,0-6.3-2.8-6.3-6.3s2.8-6.3,6.3-6.3h822.6c3.5,0,6.3,2.8,6.3,6.3
		S883.3,237.7,879.8,237.7z"/>
		<g>
			<g>
				<g>
					<g>
						<path class="st6" d="M279.3,1.8h24.4v32.9H335V1.8h24.4v88H335V56.4h-31.3v33.4h-24.4V1.8z"/>
					</g>
				</g>
				<g>
					<g>
						<path class="st6" d="M382.7,46.1v-0.3c0-25.3,20.4-45.8,47.5-45.8s47.3,20.2,47.3,45.5v0.3c0,25.3-20.4,45.8-47.5,45.8
						S382.7,71.3,382.7,46.1z M452.5,46.1v-0.3C452.5,33,443.4,22,430,22c-13.5,0-22.4,10.8-22.4,23.5v0.3
						c0,12.7,9.2,23.8,22.6,23.8C443.6,69.6,452.5,58.8,452.5,46.1z"/>
					</g>
				</g>
				<g>
					<g>
						<path class="st6" d="M500.8,1.8h24.4v66.6h42.6v21.4h-67V1.8z"/>
					</g>
				</g>
				<g>
					<g>
						<path class="st6" d="M589.1,1.8h34.1c31.3,0,49.5,18.1,49.5,43.5v0.3c0,25.4-18.5,44.3-50,44.3h-33.6V1.8z M613.5,23.3v44.9
						h9.9c14.7,0,24.4-8,24.4-22.3v-0.3c0-14.1-9.7-22.4-24.4-22.4L613.5,23.3L613.5,23.3z"/>
					</g>
				</g>
				<g>
					<g>
						<path class="st6" d="M696.1,1.8h70.8v20.6h-46.6v13.5h42.2v19.2h-42.2v14h47.3v20.7h-71.4L696.1,1.8L696.1,1.8z"/>
					</g>
				</g>
				<g>
					<g>
						<path class="st6" d="M790.7,1.8h41.6c13.5,0,22.8,3.5,28.7,9.4c5.2,5.2,7.8,11.8,7.8,20.5V32c0,13.6-7.2,22.5-18.1,27.2
						l21,30.7h-28L826,63.2h-10.8v26.7h-24.4L790.7,1.8L790.7,1.8z M831.3,44.1c8.2,0,13.1-4,13.1-10.4v-0.3c0-7-5.2-10.6-13.2-10.6
						h-16.1V44L831.3,44.1L831.3,44.1z"/>
					</g>
				</g>
				<path class="st7" d="M279.3,116.1h70.4v21.4h-46v15h41.6v20.2h-41.6v31.4h-24.4V116.1z"/>
				<path class="st7" d="M362.1,116.1h24.4v88h-24.4V116.1z"/>
				<path class="st7" d="M403.2,116.1H426l36.2,46.5v-46.5h24.1v88h-21.2l-37.7-48.3v48.3h-24.1L403.2,116.1L403.2,116.1z"/>
				<path class="st7" d="M533,115.5h23.5l37.5,88.6h-26.2l-6.3-15.8h-34.1l-6.3,15.8h-25.5L533,115.5z M554.4,169.3l-9.8-24.9
				l-9.9,24.9H554.4z"/>
				<path class="st7" d="M603.1,116.1h22.8l36.2,46.5v-46.5h24.2v88h-21.2l-37.8-48.3v48.3h-24.1v-88H603.1z"/>
				<path class="st7" d="M699.6,160.4v-0.3c0-25.6,19.6-45.8,46.3-45.8c18,0,29.5,7.5,37.3,18.2l-18.4,14.2
				c-5-6.2-10.8-10.3-19.2-10.3c-12.3,0-21,10.6-21,23.4v0.3c0,13.2,8.7,23.5,21,23.5c9.2,0,14.6-4.3,19.9-10.7l18.4,13.1
				c-8.3,11.4-19.5,19.9-38.9,19.9C719.8,205.9,699.6,186.6,699.6,160.4z"/>
				<path class="st7" d="M795,116.1h70.8v20.6h-46.6v13.5h42.2v19.2h-42.2v14h47.3v20.7h-71.4L795,116.1L795,116.1z"/>
			</g>
		</g>
	</g>
</svg>
