<?xml version="1.0" encoding="utf-8"?>
<!-- Generator: Adobe Illustrator 21.0.2, SVG Export Plug-In . SVG Version: 6.00 Build 0)  -->
<svg version="1.1" id="Capa_1" xmlns="http://www.w3.org/2000/svg" xmlns:xlink="http://www.w3.org/1999/xlink" x="0px" y="0px"
	 viewBox="0 0 897.8 349.9" style="enable-background:new 0 0 897.8 349.9;" xml:space="preserve">
<style type="text/css">
	.st0{fill:url(#SVGID_1_);}
	.st1{fill:url(#SVGID_2_);}
	.st2{fill:url(#SVGID_3_);}
	.st3{fill:url(#SVGID_4_);}
	.st4{fill:url(#SVGID_5_);}
	.st5{fill:url(#SVGID_6_);}
	.st6{fill:#FEBC31;}
	.st7{fill:#1D1511;}
	.st8{fill:#FFFFFF;}
	.st9{fill:url(#SVGID_7_);}
	.st10{fill:url(#SVGID_8_);}
	.st11{fill:url(#SVGID_9_);}
	.st12{fill:url(#SVGID_10_);}
	.st13{fill:url(#SVGID_11_);}
	.st14{fill:url(#SVGID_12_);}
	.st15{fill:url(#SVGID_13_);}
	.st16{fill:url(#SVGID_14_);}
	.st17{fill:url(#SVGID_15_);}
	.st18{fill:url(#SVGID_16_);}
	.st19{fill:url(#SVGID_17_);}
	.st20{fill:url(#SVGID_18_);}
	.st21{fill:url(#SVGID_19_);}
	.st22{fill:url(#SVGID_20_);}
	.st23{fill:url(#SVGID_21_);}
	.st24{fill:url(#SVGID_22_);}
	.st25{fill:url(#SVGID_23_);}
	.st26{fill:url(#SVGID_24_);}
</style>
<g>
	<g>
		<g>
			<g>
				<g>
					<path class="st6" d="M334,88.9h20.3v27.4h26.1V88.9h20.3v73.2h-20.3v-27.8h-26.1v27.8H334V88.9z"/>
				</g>
			</g>
			<g>
				<g>
					<path class="st6" d="M420.1,125.7v-0.2c0-21,17-38.1,39.6-38.1c22.6,0,39.3,16.8,39.3,37.9v0.2c0,21-17,38.1-39.6,38.1
						S420.1,146.8,420.1,125.7z M478.2,125.7v-0.2c0-10.7-7.5-19.8-18.7-19.8s-18.6,9-18.6,19.6v0.2c0,10.6,7.6,19.8,18.8,19.8
						C470.7,145.3,478.2,136.3,478.2,125.7z"/>
				</g>
			</g>
			<g>
				<g>
					<path class="st6" d="M518.3,88.9h20.3v55.5h35.5v17.8h-55.8V88.9z"/>
				</g>
			</g>
			<g>
				<g>
					<path class="st6" d="M591.8,88.9h28.4c26.1,0,41.2,15.1,41.2,36.2v0.2c0,21.1-15.4,36.8-41.6,36.8h-27.9V88.9z M612.1,106.8
						v37.4h8.3c12.2,0,20.3-6.7,20.3-18.5v-0.2c0-11.7-8.1-18.6-20.3-18.6H612.1z"/>
				</g>
			</g>
			<g>
				<g>
					<path class="st6" d="M680.8,88.9h58.9v17.2h-38.8v11.2h35.2v16h-35.2v11.6h39.3v17.3h-59.4V88.9z"/>
				</g>
			</g>
			<g>
				<g>
					<path class="st6" d="M759.6,88.9h34.6c11.2,0,18.9,2.9,23.9,7.8c4.3,4.3,6.5,9.8,6.5,17.1v0.2c0,11.3-6,18.7-15.1,22.6
						l17.5,25.5h-23.3L788.9,140h-9v22.2h-20.3V88.9z M793.4,124.1c6.8,0,10.9-3.3,10.9-8.7v-0.2c0-5.9-4.3-8.8-11-8.8h-13.4v17.7
						H793.4z"/>
				</g>
			</g>
			<path class="st7" d="M334,188.2h58.6V206h-38.3v12.5h34.6v16.8h-34.6v26.2H334V188.2z"/>
			<path class="st7" d="M402.9,188.2h20.3v73.2h-20.3V188.2z"/>
			<path class="st7" d="M437.2,188.2h18.9l30.1,38.7v-38.7h20.1v73.2h-17.7l-31.4-40.2v40.2h-20.1V188.2z"/>
			<path class="st7" d="M545.1,187.7h19.6l31.2,73.8h-21.8l-5.2-13.2h-28.4l-5.2,13.2h-21.2L545.1,187.7z M562.9,232.5l-8.2-20.7
				l-8.3,20.7H562.9z"/>
			<path class="st7" d="M603.5,188.2h18.9l30.1,38.7v-38.7h20.1v73.2H655l-31.4-40.2v40.2h-20.1V188.2z"/>
			<path class="st7" d="M683.8,225v-0.2c0-21.3,16.3-38.1,38.5-38.1c15,0,24.6,6.3,31.1,15.2l-15.3,11.8c-4.2-5.1-9-8.6-16-8.6
				c-10.3,0-17.5,8.8-17.5,19.5v0.2c0,11,7.2,19.6,17.5,19.6c7.6,0,12.1-3.6,16.5-8.9l15.3,10.9c-6.9,9.5-16.2,16.5-32.3,16.5
				C700.6,262.9,683.8,246.9,683.8,225z"/>
			<path class="st7" d="M763.2,188.2h58.9v17.2h-38.8v11.2h35.2v16h-35.2v11.6h39.3v17.3h-59.4V188.2z"/>
		</g>
	</g>
	<g id="_x30_fjlZZ_12_">
		<g>
			<linearGradient id="SVGID_1_" gradientUnits="userSpaceOnUse" x1="190.4629" y1="194.2954" x2="55.0864" y2="194.2954">
				<stop  offset="0" style="stop-color:#FE9700"/>
				<stop  offset="1" style="stop-color:#FFE263"/>
			</linearGradient>
			<path class="st0" d="M190.5,261.8c-28.4,0-54.3,0.1-80.2-0.2c-2.8,0-6.5-2.4-8.3-4.8c-15.5-21.1-30.8-42.4-45.8-63.9
				c-1.4-2-1.4-6.7-0.1-8.8c11.4-17.7,23-35.2,35.1-52.4c1.7-2.5,6-4.5,9.1-4.6c18.1-0.4,36.3-0.4,54.5,0c2.9,0.1,6.6,2,8.4,4.4
				c8.3,10.7,16.1,21.8,23.7,33c1.3,1.9,2.1,5.8,1,7.4c-6.8,10.2-14.3,20-22.2,30.9c-6.4-8.8-12.1-16.7-17.7-24.5
				c-7.4-10.3-7.6-10.3-22.9-7.8C146.8,200.7,168,230.4,190.5,261.8z"/>
			<linearGradient id="SVGID_2_" gradientUnits="userSpaceOnUse" x1="175.9402" y1="178.4984" x2="276.2354" y2="178.4984">
				<stop  offset="0" style="stop-color:#FE9700"/>
				<stop  offset="1" style="stop-color:#FFE263"/>
			</linearGradient>
			<path class="st1" d="M252.1,107.2c8.7,13.1,16.4,24.5,24.2,36.2c-25.5,35.4-50.7,70.4-76.7,106.5c-8.2-11.3-15.8-21.7-23.1-32.2
				c-0.8-1.2-0.7-4.1,0.2-5.3C201.4,177.6,226.3,143.1,252.1,107.2z"/>
			<linearGradient id="SVGID_3_" gradientUnits="userSpaceOnUse" x1="208.5868" y1="208.91" x2="304.8102" y2="208.91">
				<stop  offset="0" style="stop-color:#FE9700"/>
				<stop  offset="1" style="stop-color:#FFE263"/>
			</linearGradient>
			<path class="st2" d="M208.6,261.7c26.1-36.3,50.7-70.5,76-105.7c7.1,10.6,13.7,20,19.7,29.7c1,1.5,0.4,5.1-0.8,6.7
				c-15.5,21.8-31.1,43.6-46.9,65.2c-1.4,1.9-4.1,3.8-6.2,3.9C237.3,261.9,224.1,261.7,208.6,261.7z"/>
			<linearGradient id="SVGID_4_" gradientUnits="userSpaceOnUse" x1="174.0323" y1="108.8352" x2="241.899" y2="108.8352">
				<stop  offset="0" style="stop-color:#FE9700"/>
				<stop  offset="1" style="stop-color:#FFE263"/>
			</linearGradient>
			<path class="st3" d="M198.9,156.6c-8.7-12.2-16.9-23.3-24.5-34.7c-0.9-1.4-0.1-4.9,1.1-6.7c11.7-16.7,23.6-33.3,35.7-49.8
				c4.3-5.9,8.7-5.8,12.9,0.1c5.8,8.2,11.4,16.6,16.7,25.1c1.1,1.7,1.5,5.2,0.5,6.7C227.6,116.9,213.7,136.1,198.9,156.6z"/>
			<linearGradient id="SVGID_5_" gradientUnits="userSpaceOnUse" x1="162.0172" y1="107.4648" x2="137.6542" y2="65.2668">
				<stop  offset="0" style="stop-color:#FE9700"/>
				<stop  offset="1" style="stop-color:#FFE263"/>
			</linearGradient>
			<path class="st4" d="M103.8,112.3c7-10.6,14.1-18.7,18.4-28.1c8.9-19.4,23-26.4,43.8-23.1c9.2,1.5,18.8,0.2,30.4,0.2
				c-7.2,10.2-14.4,18.1-19.1,27.4c-10,19.6-24.6,27.6-46.4,23.8C122.9,111.2,114.5,112.3,103.8,112.3z"/>
		</g>
	</g>
	<linearGradient id="SVGID_6_" gradientUnits="userSpaceOnUse" x1="107.0233" y1="287.6272" x2="824.7996" y2="287.6272">
		<stop  offset="0" style="stop-color:#FE9700"/>
		<stop  offset="0.2098" style="stop-color:#FCB246"/>
		<stop  offset="0.4197" style="stop-color:#FACA85"/>
		<stop  offset="0.6107" style="stop-color:#F9DEB7"/>
		<stop  offset="0.7772" style="stop-color:#F8EBDA"/>
		<stop  offset="0.9126" style="stop-color:#F7F4F0"/>
		<stop  offset="1" style="stop-color:#F7F7F8"/>
	</linearGradient>
	<path class="st5" d="M818.5,294H113.4c-3.5,0-6.3-2.8-6.3-6.3s2.8-6.3,6.3-6.3h705.1c3.5,0,6.3,2.8,6.3,6.3S822,294,818.5,294z"/>
</g>
</svg>
