<?xml version="1.0" encoding="utf-8"?>
<!-- Generator: Adobe Illustrator 21.0.2, SVG Export Plug-In . SVG Version: 6.00 Build 0)  -->
<svg version="1.1" id="Capa_1" xmlns="http://www.w3.org/2000/svg" xmlns:xlink="http://www.w3.org/1999/xlink" x="0px" y="0px"
	 viewBox="0 0 365.8 349.9" style="enable-background:new 0 0 365.8 349.9;" xml:space="preserve">
<style type="text/css">
	.st0{fill:url(#SVGID_1_);}
	.st1{fill:url(#SVGID_2_);}
	.st2{fill:url(#SVGID_3_);}
	.st3{fill:url(#SVGID_4_);}
	.st4{fill:url(#SVGID_5_);}
	.st5{fill:url(#SVGID_6_);}
	.st6{fill:#FEBC31;}
	.st7{fill:#1D1511;}
	.st8{fill:#FFFFFF;}
	.st9{fill:url(#SVGID_7_);}
	.st10{fill:url(#SVGID_8_);}
	.st11{fill:url(#SVGID_9_);}
	.st12{fill:url(#SVGID_10_);}
	.st13{fill:url(#SVGID_11_);}
	.st14{fill:url(#SVGID_12_);}
	.st15{fill:url(#SVGID_13_);}
	.st16{fill:url(#SVGID_14_);}
	.st17{fill:url(#SVGID_15_);}
	.st18{fill:url(#SVGID_16_);}
	.st19{fill:url(#SVGID_17_);}
	.st20{fill:url(#SVGID_18_);}
	.st21{fill:url(#SVGID_19_);}
	.st22{fill:url(#SVGID_20_);}
	.st23{fill:url(#SVGID_21_);}
	.st24{fill:url(#SVGID_22_);}
	.st25{fill:url(#SVGID_23_);}
	.st26{fill:url(#SVGID_24_);}
</style>
<g>
	<g id="_x30_fjlZZ_4_">
		<g>
			<path class="st8" d="M189.7,259.4c-27.9,0-53.4,0.1-78.8-0.2c-2.8,0-6.4-2.3-8.2-4.7c-15.3-20.7-30.3-41.7-45-62.8
				c-1.4-2-1.4-6.5-0.1-8.6c11.2-17.4,22.6-34.6,34.4-51.5c1.7-2.5,5.9-4.4,9-4.5c17.8-0.4,35.7-0.4,53.5,0c2.8,0.1,6.5,2,8.3,4.3
				c8.1,10.5,15.8,21.4,23.3,32.4c1.3,1.9,2,5.7,1,7.3c-6.7,10-14,19.7-21.8,30.3c-6.3-8.7-11.9-16.4-17.4-24.1
				c-7.2-10.1-7.4-10.2-22.5-7.6C146.8,199.5,167.6,228.6,189.7,259.4z"/>
			<path class="st8" d="M250.2,107.5c8.6,12.8,16.1,24.1,23.8,35.5c-25.1,34.8-49.8,69.2-75.3,104.7c-8-11.1-15.5-21.3-22.7-31.7
				c-0.8-1.2-0.7-4,0.2-5.2C200.4,176.7,224.9,142.8,250.2,107.5z"/>
			<path class="st8" d="M207.5,259.4c25.6-35.6,49.8-69.3,74.7-103.8c7,10.4,13.4,19.7,19.4,29.2c0.9,1.5,0.4,5-0.8,6.6
				c-15.2,21.5-30.5,42.8-46.1,64c-1.3,1.8-4,3.7-6.1,3.8C235.7,259.6,222.8,259.4,207.5,259.4z"/>
			<path class="st8" d="M198,156.1c-8.6-12-16.6-22.9-24.1-34.1c-0.9-1.4-0.1-4.9,1.1-6.6c11.5-16.4,23.2-32.7,35.1-48.9
				c4.2-5.8,8.6-5.7,12.7,0.1c5.7,8.1,11.2,16.3,16.4,24.7c1.1,1.7,1.5,5.2,0.4,6.6C226.2,117.1,212.5,136,198,156.1z"/>
			<path class="st8" d="M104.5,112.6c6.9-10.4,13.9-18.4,18.1-27.6c8.8-19.1,22.6-26,43-22.7c9,1.4,18.5,0.2,29.9,0.2
				c-7.1,10-14.1,17.8-18.8,26.9c-9.8,19.2-24.2,27.2-45.6,23.4C123.3,111.4,115,112.6,104.5,112.6z"/>
		</g>
	</g>
	<path class="st8" d="M248.3,291.1H113.9c-3.4,0-6.2-2.8-6.2-6.2c0-3.4,2.8-6.2,6.2-6.2h134.4c3.4,0,6.2,2.8,6.2,6.2
		C254.5,288.3,251.7,291.1,248.3,291.1z"/>
</g>
</svg>
