<?xml version="1.0" encoding="utf-8"?>
<!-- Generator: Adobe Illustrator 25.0.1, SVG Export Plug-In . SVG Version: 6.00 Build 0)  -->
<svg version="1.1" id="Capa_1" xmlns="http://www.w3.org/2000/svg" xmlns:xlink="http://www.w3.org/1999/xlink" x="0px" y="0px"
	 viewBox="0 0 370.8 237.7" style="enable-background:new 0 0 370.8 237.7;" xml:space="preserve">
<style type="text/css">
	.st0{fill:#FEBC31;}
	.st1{fill:#1D1511;}
	.st2{fill:url(#SVGID_1_);}
	.st3{fill:url(#SVGID_2_);}
	.st4{fill:url(#SVGID_3_);}
	.st5{fill:url(#SVGID_4_);}
	.st6{fill:url(#SVGID_5_);}
	.st7{fill:url(#SVGID_6_);}
</style>
<g>
	<path class="st0" d="M279,13.8h25.7v34.7h33V13.8h25.7v92.7h-25.7V71.3h-33v35.2H279V13.8z"/>
	<path class="st1" d="M279,133.2h56.9v17.3h-37.2v12h33.6v16.4h-33.6v25.4H279L279,133.2L279,133.2z"/>
	<path class="st1" d="M343.7,132.8h19.6v71h-19.6V132.8z"/>
</g>
<g id="_x30_fjlZZ_11_">
	<g>
		
			<linearGradient id="SVGID_1_" gradientUnits="userSpaceOnUse" x1="134.7628" y1="106.391" x2="9.094947e-13" y2="106.391" gradientTransform="matrix(1 0 0 -1 0 244.998)">
			<stop  offset="0" style="stop-color:#FE9700"/>
			<stop  offset="1" style="stop-color:#FFE263"/>
		</linearGradient>
		<path class="st2" d="M134.8,205.7c-28.2,0-54,0.1-79.8-0.2c-2.8,0-6.5-2.4-8.3-4.7c-15.5-21-30.7-42.2-45.6-63.6
			c-1.4-2-1.4-6.6-0.1-8.7c11.3-17.6,22.9-35,34.9-52.2c1.7-2.5,6-4.5,9.1-4.5c18.1-0.4,36.1-0.4,54.2,0c2.9,0.1,6.6,2,8.4,4.3
			c8.2,10.7,16,21.7,23.6,32.8c1.3,1.9,2,5.8,1,7.3c-6.8,10.2-14.2,19.9-22.1,30.7c-6.4-8.8-12-16.6-17.7-24.4
			c-7.3-10.2-7.5-10.3-22.8-7.7C91.3,144.9,112.5,174.4,134.8,205.7z"/>
		
			<linearGradient id="SVGID_2_" gradientUnits="userSpaceOnUse" x1="120.3204" y1="122.199" x2="220.1628" y2="122.199" gradientTransform="matrix(1 0 0 -1 0 244.998)">
			<stop  offset="0" style="stop-color:#FE9700"/>
			<stop  offset="1" style="stop-color:#FFE263"/>
		</linearGradient>
		<path class="st3" d="M196.1,51.8c8.7,13,16.3,24.4,24.1,36c-25.4,35.2-50.4,70.1-76.3,106c-8.1-11.3-15.7-21.6-23-32.1
			c-0.8-1.2-0.7-4,0.2-5.3C145.7,121.9,170.5,87.5,196.1,51.8z"/>
		
			<linearGradient id="SVGID_3_" gradientUnits="userSpaceOnUse" x1="152.8628" y1="91.9793" x2="248.6234" y2="91.9793" gradientTransform="matrix(1 0 0 -1 0 244.998)">
			<stop  offset="0" style="stop-color:#FE9700"/>
			<stop  offset="1" style="stop-color:#FFE263"/>
		</linearGradient>
		<path class="st4" d="M152.9,205.6c26-36.1,50.5-70.1,75.7-105.2c7.1,10.6,13.6,19.9,19.6,29.6c0.9,1.5,0.4,5-0.8,6.7
			c-15.4,21.7-30.9,43.3-46.6,64.8c-1.4,1.9-4.1,3.8-6.2,3.8C181.4,205.8,168.3,205.6,152.9,205.6z"/>
		
			<linearGradient id="SVGID_4_" gradientUnits="userSpaceOnUse" x1="118.3767" y1="191.5367" x2="185.9357" y2="191.5367" gradientTransform="matrix(1 0 0 -1 0 244.998)">
			<stop  offset="0" style="stop-color:#FE9700"/>
			<stop  offset="1" style="stop-color:#FFE263"/>
		</linearGradient>
		<path class="st5" d="M143.2,101c-8.7-12.2-16.8-23.2-24.4-34.5c-0.9-1.4-0.1-4.9,1.1-6.6c11.7-16.6,23.5-33.1,35.5-49.6
			c4.3-5.9,8.7-5.8,12.9,0.1c5.7,8.2,11.3,16.5,16.6,25c1.1,1.7,1.5,5.2,0.5,6.7C171.8,61.5,157.9,80.6,143.2,101z"/>
		
			<linearGradient id="SVGID_5_" gradientUnits="userSpaceOnUse" x1="106.5413" y1="192.9115" x2="82.2959" y2="234.9058" gradientTransform="matrix(1 0 0 -1 0 244.998)">
			<stop  offset="0" style="stop-color:#FE9700"/>
			<stop  offset="1" style="stop-color:#FFE263"/>
		</linearGradient>
		<path class="st6" d="M48.6,57c7-10.5,14.1-18.6,18.4-28C75.9,9.7,89.8,2.7,110.6,6c9.1,1.5,18.7,0.2,30.3,0.2
			c-7.2,10.1-14.3,18-19,27.2C112,52.9,97.4,60.9,75.7,57.1C67.6,55.8,59.2,57,48.6,57z"/>
	</g>
</g>
<linearGradient id="SVGID_6_" gradientUnits="userSpaceOnUse" x1="51.7628" y1="13.599" x2="370.7628" y2="13.599" gradientTransform="matrix(1 0 0 -1 0 244.998)">
	<stop  offset="0" style="stop-color:#FE9700"/>
	<stop  offset="0.2098" style="stop-color:#FCB246"/>
	<stop  offset="0.4197" style="stop-color:#FACA85"/>
	<stop  offset="0.6107" style="stop-color:#F9DEB7"/>
	<stop  offset="0.7772" style="stop-color:#F8EBDA"/>
	<stop  offset="0.9126" style="stop-color:#F7F4F0"/>
	<stop  offset="1" style="stop-color:#F7F7F8"/>
</linearGradient>
<path class="st7" d="M364.5,237.7H58.1c-3.5,0-6.3-2.8-6.3-6.3s2.8-6.3,6.3-6.3h306.4c3.5,0,6.3,2.8,6.3,6.3
	C370.8,234.9,368,237.7,364.5,237.7z"/>
</svg>
