<?xml version="1.0" encoding="utf-8"?>
<!-- Generator: Adobe Illustrator 21.0.2, SVG Export Plug-In . SVG Version: 6.00 Build 0)  -->
<svg version="1.1" id="Capa_1" xmlns="http://www.w3.org/2000/svg" xmlns:xlink="http://www.w3.org/1999/xlink" x="0px" y="0px"
	 viewBox="0 0 371.5 233.1" style="enable-background:new 0 0 371.5 233.1;" xml:space="preserve">
<style type="text/css">
	.st0{fill:#FFFFFF;}
</style>
<g>
	<path class="st0" d="M279.4,9h25.7v34.7h33V9h25.7v92.7h-25.7V66.5h-33v35.2h-25.7V9z"/>
	<path class="st0" d="M279.4,128.4h56.9v17.3h-37.2v12h33.6v16.4h-33.6v25.4h-19.7L279.4,128.4L279.4,128.4z"/>
	<path class="st0" d="M344.1,128h19.6v71h-19.6V128z"/>
</g>
<g id="_x30_fjlZZ_3_">
	<g>
		<path class="st0" d="M135.2,200.9c-28.2,0-54,0.1-79.8-0.2c-2.8,0-6.5-2.4-8.3-4.7c-15.5-21-30.7-42.2-45.6-63.6
			c-1.4-2-1.4-6.6-0.1-8.7c11.3-17.6,22.9-35,34.9-52.2c1.7-2.5,6-4.5,9.1-4.5c18.1-0.4,36.1-0.4,54.2,0c2.9,0.1,6.6,2,8.4,4.3
			c8.2,10.7,16,21.7,23.6,32.8c1.3,1.9,2,5.8,1,7.3c-6.8,10.2-14.2,19.9-22.1,30.7c-6.4-8.8-12-16.6-17.7-24.4
			c-7.3-10.2-7.5-10.3-22.8-7.7C91.7,140.1,112.9,169.6,135.2,200.9z"/>
		<path class="st0" d="M196.5,47c8.7,13,16.3,24.4,24.1,36c-25.4,35.2-50.4,70.1-76.3,106c-8.1-11.3-15.7-21.6-23-32.1
			c-0.8-1.2-0.7-4,0.2-5.3C146.1,117.1,170.9,82.7,196.5,47z"/>
		<path class="st0" d="M153.3,200.8c26-36.1,50.5-70.1,75.7-105.2c7.1,10.6,13.6,19.9,19.6,29.6c0.9,1.5,0.4,5-0.8,6.7
			c-15.4,21.7-30.9,43.3-46.6,64.8c-1.4,1.9-4.1,3.8-6.2,3.8C181.8,201,168.7,200.8,153.3,200.8z"/>
		<path class="st0" d="M143.6,96.2C134.9,84,126.8,73,119.2,61.7c-0.9-1.4-0.1-4.9,1.1-6.6C132,38.5,143.8,22,155.8,5.5
			c4.3-5.9,8.7-5.8,12.9,0.1c5.7,8.2,11.3,16.5,16.6,25c1.1,1.7,1.5,5.2,0.5,6.7C172.2,56.7,158.3,75.8,143.6,96.2z"/>
		<path class="st0" d="M49,52.2c7-10.5,14.1-18.6,18.4-28C76.3,4.9,90.2-2.1,111,1.2c9.1,1.5,18.7,0.2,30.3,0.2
			c-7.2,10.1-14.3,18-19,27.2c-9.9,19.5-24.5,27.5-46.2,23.7C68,51,59.6,52.2,49,52.2z"/>
	</g>
</g>
<path class="st0" d="M364.9,232.9H58.5c-3.5,0-6.3-2.8-6.3-6.3s2.8-6.3,6.3-6.3h306.4c3.5,0,6.3,2.8,6.3,6.3
	C371.2,230.1,368.4,232.9,364.9,232.9z"/>
</svg>
