<svg xmlns="http://www.w3.org/2000/svg" xmlns:xlink="http://www.w3.org/1999/xlink" width="67.73cm" height="38.06cm" viewBox="0 0 1920 1079">
  <defs>
    <style>
      .cls-1 {
        fill: none;
      }

      .cls-2 {
        isolation: isolate;
      }

      .cls-3 {
        clip-path: url(#clip-path);
      }

      .cls-4 {
        fill: url(#Degradado_sin_nombre_35);
      }

      .cls-5 {
        fill: url(#linear-gradient);
      }

      .cls-6 {
        fill: #636363;
        mix-blend-mode: overlay;
      }

      .cls-7 {
        fill: url(#linear-gradient-2);
      }

      .cls-10, .cls-12, .cls-14, .cls-16, .cls-8 {
        mix-blend-mode: color-burn;
      }

      .cls-8 {
        fill: url(#radial-gradient);
      }

      .cls-9 {
        fill: url(#linear-gradient-3);
      }

      .cls-10 {
        fill: url(#radial-gradient-2);
      }

      .cls-11 {
        fill: url(#linear-gradient-4);
      }

      .cls-12 {
        fill: url(#radial-gradient-3);
      }

      .cls-13 {
        fill: url(#linear-gradient-5);
      }

      .cls-14 {
        fill: url(#Nueva_muestra_de_degradado_1);
      }

      .cls-15 {
        fill: url(#Degradado_sin_nombre_3);
      }

      .cls-16 {
        fill: url(#Nueva_muestra_de_degradado_1-2);
      }

      .cls-17 {
        fill: url(#linear-gradient-6);
      }
    </style>
    <clipPath id="clip-path">
      <rect class="cls-1" width="1920" height="1079"/>
    </clipPath>
    <linearGradient id="Degradado_sin_nombre_35" data-name="Degradado sin nombre 35" x1="-3005.41" y1="7665.88" x2="-1834.23" y2="7665.88" gradientTransform="translate(3380.7 -7137.06)" gradientUnits="userSpaceOnUse">
      <stop offset="0" stop-color="#fe9700"/>
      <stop offset="0.21" stop-color="#fcb246"/>
      <stop offset="0.42" stop-color="#faca85"/>
      <stop offset="0.61" stop-color="#f9deb7"/>
      <stop offset="0.78" stop-color="#f8ebda"/>
      <stop offset="0.91" stop-color="#f7f4f0"/>
      <stop offset="1" stop-color="#f7f7f8"/>
    </linearGradient>
    <linearGradient id="linear-gradient" x1="-2744.42" y1="8320.22" x2="-2831.37" y2="8066.83" gradientTransform="translate(-8015.88 -499.05) rotate(-98.25)" gradientUnits="userSpaceOnUse">
      <stop offset="0" stop-color="#fe8900"/>
      <stop offset="1" stop-color="#fe5500"/>
    </linearGradient>
    <linearGradient id="linear-gradient-2" x1="-2504.12" y1="7376.01" x2="-2349.8" y2="7824.14" gradientTransform="matrix(0, -1, 1, 0, -6024.7, -2414.7)" xlink:href="#linear-gradient"/>
    <radialGradient id="radial-gradient" cx="-2807.18" cy="8518.04" r="46.59" gradientTransform="translate(-6705 -1891) rotate(-90)" gradientUnits="userSpaceOnUse">
      <stop offset="0.2" stop-color="#666"/>
      <stop offset="0.52" stop-color="#a9a9a9"/>
      <stop offset="0.85" stop-color="#e7e7e7"/>
      <stop offset="1" stop-color="#fff"/>
    </radialGradient>
    <linearGradient id="linear-gradient-3" x1="-2807" y1="8530.94" x2="-2807" y2="8474.15" gradientTransform="translate(-6705 -1891) rotate(-90)" gradientUnits="userSpaceOnUse">
      <stop offset="0" stop-color="#fe5500"/>
      <stop offset="1" stop-color="#fe8900"/>
    </linearGradient>
    <radialGradient id="radial-gradient-2" cx="-2726.27" cy="8352.65" r="89.82" xlink:href="#radial-gradient"/>
    <linearGradient id="linear-gradient-4" x1="-2725.93" y1="8377.52" x2="-2725.93" y2="8268.02" xlink:href="#linear-gradient-3"/>
    <radialGradient id="radial-gradient-3" cx="344.81" cy="567.61" r="108.04" gradientTransform="translate(370.84 440.57)" xlink:href="#radial-gradient"/>
    <linearGradient id="linear-gradient-5" x1="345.22" y1="597.53" x2="345.22" y2="465.81" gradientTransform="translate(370.84 440.57)" xlink:href="#linear-gradient-3"/>
    <radialGradient id="Nueva_muestra_de_degradado_1" data-name="Nueva muestra de degradado 1" cx="-7217.3" cy="-3319.87" r="88.02" gradientTransform="translate(-5695.57 -3050.55) rotate(180)" gradientUnits="userSpaceOnUse">
      <stop offset="0.2" stop-color="gray"/>
      <stop offset="0.44" stop-color="#aaa"/>
      <stop offset="0.82" stop-color="#e7e7e7"/>
      <stop offset="1" stop-color="#fff"/>
    </radialGradient>
    <linearGradient id="Degradado_sin_nombre_3" data-name="Degradado sin nombre 3" x1="-7216.96" y1="-3295.5" x2="-7216.96" y2="-3402.81" gradientTransform="translate(-5670.36 -3070.85) rotate(180)" gradientUnits="userSpaceOnUse">
      <stop offset="0" stop-color="#fe9700"/>
      <stop offset="1" stop-color="#ffe263"/>
    </linearGradient>
    <radialGradient id="Nueva_muestra_de_degradado_1-2" cx="-3063.28" cy="-2677.15" r="88.02" gradientTransform="translate(-2439.41 3565.06) rotate(90)" xlink:href="#Nueva_muestra_de_degradado_1"/>
    <linearGradient id="linear-gradient-6" x1="-3062.95" y1="-2652.77" x2="-3062.95" y2="-2760.09" gradientTransform="translate(-2442.26 3553.01) rotate(90)" xlink:href="#Degradado_sin_nombre_3"/>
  </defs>
  <title>Recurso 3</title>
  <g class="cls-2">
    <g id="Capa_1" data-name="Capa 1">
      <g class="cls-3">
        <g>
          <g>
            <rect class="cls-4" x="375.29" y="-441.11" width="1171.18" height="1939.86" transform="translate(432.06 1489.7) rotate(-90)"/>
            <path class="cls-5" d="M242.5,864.38c-.36,15.07-.29,30.14-.3,45.22,0,104.15-86,116.34-73,176.07,8.62,39.6,77.41,61.59,45.18,95.3-71.58,74.85-11.18,138.92,57.79,149.33,35.17,5.31,55.43-2.82,102.65-8.15,72.26-8.15,65.17,80,116.92,142.09,49.05,58.91,119.76,50.22,148.71-2.1,45.22-81.73-37.51-153.36,9.71-225.25,84.42-128.52,15.46-133.72-38.63-216.79-47-72.16-10.07-130.49-22.22-201.8-6.55-58.42-33.86-99.88-82.39-127.23C382.57,621,245.8,724.31,242.5,864.38Z"/>
            <path class="cls-6" d="M-234.33,287.39c28,131.47,143.18,168.79,59.26,263.63-25.06,28.32-50.6,48-64.2,77.52C-278.1,712.92-156.25,768.06-186,847c-18.94,50.31-58.32,123.48,1.07,204.82,30.52,41.81,75,53.45,128.72,69.47,112.23,33.44,124.81,134.81,240.7,193.44,98.86,50,192.61,17.11,228.11-67.41,40.83-97.23-3-182.82-31-304.81-24.71-107.45,62-153.55,110.3-262.55,33.36-75.23,8-151.25-46-212.95-70.58-80.65-143.41-103.56-229.68-134C120.9,299.34,88.09,238.7,48.39,187.85-74.3,30.69-264.47,145.65-234.33,287.39Z"/>
            <path class="cls-7" d="M1432.26-159.23c7.82,36.84-6.19,38.71-54.17,111.54-50.55,76.73-16.91,192.46,89.64,227.3,36.35,11.88,65.7,12.23,107.86,20.35,66.35,12.77,85.49,57.4,106.91,95.81,23.35,41.88,68.41,152.51,203.78,129.6,78.12-13.23,138.22-71.45,131.5-157-3.67-46.69-23.1-88.85-40-133.4-58.92-155.14-47.25-148.25-28.9-312.13-4.48-.3.12-6.44-2-30.09-10.09-110-97.18-121.65-194.24-138.72-145.17-25.53-155.46-122-238.25-143.08-26-6.64-61.32,3.2-87.52,36C1352.49-360.21,1418.35-224.8,1432.26-159.23Z"/>
            <path class="cls-6" d="M1571.24,11.2c21.47,159.13,155.37,214,46.86,319.39-32.4,31.48-64.6,52.58-83.46,86.56-53.85,97,86.34,173.68,43.85,265-27.09,58.22-80.59,141.85-17.17,244.1,32.6,52.55,84.48,70.41,147.08,94.34,130.68,49.94,136.54,171.82,269.32,252.11,113.27,68.48,227.92,37.72,277.8-59.76,57.39-112.15,12.94-218.06-9.49-365.9-19.76-130.23,87.63-177.34,155-302.84,46.52-86.61,23.09-179.46-35.68-257.82C2288.57,183.93,2203.88,150.08,2103.85,106,1993.33,57.41,1959.7-17.79,1917-81.93,1785-280.19,1548.09-160.37,1571.24,11.2Z"/>
          </g>
          <g>
            <circle class="cls-8" cx="1813.04" cy="916.18" r="46.59"/>
            <circle class="cls-9" cx="1799.61" cy="916" r="34.04"/>
          </g>
          <g>
            <circle class="cls-10" cx="1647.65" cy="835.27" r="89.82"/>
            <circle class="cls-11" cx="1621.74" cy="834.93" r="65.64"/>
          </g>
          <g>
            <circle class="cls-12" cx="715.64" cy="1008.18" r="108.04"/>
            <circle class="cls-13" cx="716.06" cy="977.02" r="78.95"/>
          </g>
          <g>
            <circle class="cls-14" cx="1521.72" cy="269.32" r="88.02" transform="translate(971.88 1713.57) rotate(-79.19)"/>
            <circle class="cls-15" cx="1546.6" cy="274.42" r="64.32" transform="translate(987.09 1742.14) rotate(-79.19)"/>
          </g>
          <g>
            <circle class="cls-16" cx="237.74" cy="501.77" r="88.02" transform="matrix(0.88, -0.47, 0.47, 0.88, -208.98, 172.01)"/>
            <circle class="cls-17" cx="260.27" cy="490.07" r="64.32" transform="translate(-200.77 181.28) rotate(-28.21)"/>
          </g>
        </g>
      </g>
    </g>
  </g>
</svg>
