<?xml version="1.0" encoding="utf-8"?>
<!-- Generator: Adobe Illustrator 25.0.1, SVG Export Plug-In . SVG Version: 6.00 Build 0)  -->
<svg version="1.1" id="Capa_1" xmlns="http://www.w3.org/2000/svg" xmlns:xlink="http://www.w3.org/1999/xlink" x="0px" y="0px"
	 viewBox="0 0 245.4 245.4" style="enable-background:new 0 0 245.4 245.4;" xml:space="preserve">
<style type="text/css">
	.st0{fill:url(#SVGID_1_);}
	.st1{fill:url(#SVGID_2_);}
	.st2{fill:url(#SVGID_3_);}
	.st3{fill:url(#SVGID_4_);}
	.st4{fill:url(#SVGID_5_);}
	.st5{fill:url(#SVGID_6_);}
</style>
<g>
	<g id="_x30_fjlZZ_13_">
		<g>
			
				<linearGradient id="SVGID_1_" gradientUnits="userSpaceOnUse" x1="133.0629" y1="105.2481" x2="1.818989e-12" y2="105.2481" gradientTransform="matrix(1 0 0 -1 0 244.7121)">
				<stop  offset="0" style="stop-color:#FE9700"/>
				<stop  offset="1" style="stop-color:#FFE263"/>
			</linearGradient>
			<path class="st0" d="M133.1,205.8c-27.9,0-53.4,0.1-78.8-0.2c-2.8,0-6.4-2.3-8.2-4.7c-15.3-20.7-30.3-41.7-45-62.8
				c-1.4-2-1.4-6.5-0.1-8.6C12.2,112.1,23.6,94.9,35.4,78c1.7-2.5,5.9-4.4,9-4.5c17.8-0.4,35.7-0.4,53.5,0c2.8,0.1,6.5,2,8.3,4.3
				c8.1,10.5,15.8,21.4,23.3,32.4c1.3,1.9,2,5.7,1,7.3c-6.7,10-14,19.7-21.8,30.3c-6.3-8.7-11.9-16.4-17.4-24.1
				c-7.2-10.1-7.4-10.2-22.5-7.6C90.2,145.9,111,175,133.1,205.8z"/>
			
				<linearGradient id="SVGID_2_" gradientUnits="userSpaceOnUse" x1="118.8204" y1="120.7561" x2="217.3629" y2="120.7561" gradientTransform="matrix(1 0 0 -1 0 244.7121)">
				<stop  offset="0" style="stop-color:#FE9700"/>
				<stop  offset="1" style="stop-color:#FFE263"/>
			</linearGradient>
			<path class="st1" d="M193.6,53.9c8.6,12.8,16.1,24.1,23.8,35.5c-25.1,34.8-49.8,69.2-75.3,104.7c-8-11.1-15.5-21.3-22.7-31.7
				c-0.8-1.2-0.7-4,0.2-5.2C143.8,123.1,168.3,89.2,193.6,53.9z"/>
			
				<linearGradient id="SVGID_3_" gradientUnits="userSpaceOnUse" x1="150.8629" y1="90.8311" x2="245.4234" y2="90.8311" gradientTransform="matrix(1 0 0 -1 0 244.7121)">
				<stop  offset="0" style="stop-color:#FE9700"/>
				<stop  offset="1" style="stop-color:#FFE263"/>
			</linearGradient>
			<path class="st2" d="M150.9,205.8c25.6-35.6,49.8-69.3,74.7-103.8c7,10.4,13.4,19.7,19.4,29.2c0.9,1.5,0.4,5-0.8,6.6
				c-15.2,21.5-30.5,42.8-46.1,64c-1.3,1.8-4,3.7-6.1,3.8C179.1,206,166.2,205.8,150.9,205.8z"/>
			
				<linearGradient id="SVGID_4_" gradientUnits="userSpaceOnUse" x1="116.8767" y1="189.2062" x2="183.6145" y2="189.2062" gradientTransform="matrix(1 0 0 -1 0 244.7121)">
				<stop  offset="0" style="stop-color:#FE9700"/>
				<stop  offset="1" style="stop-color:#FFE263"/>
			</linearGradient>
			<path class="st3" d="M141.4,102.5c-8.6-12-16.6-22.9-24.1-34.1c-0.9-1.4-0.1-4.9,1.1-6.6c11.5-16.4,23.2-32.7,35.1-48.9
				c4.2-5.8,8.6-5.7,12.7,0.1c5.7,8.1,11.2,16.3,16.4,24.7c1.1,1.7,1.5,5.2,0.4,6.6C169.6,63.5,155.9,82.4,141.4,102.5z"/>
			
				<linearGradient id="SVGID_5_" gradientUnits="userSpaceOnUse" x1="105.0677" y1="190.5327" x2="81.126" y2="232.0009" gradientTransform="matrix(1 0 0 -1 0 244.7121)">
				<stop  offset="0" style="stop-color:#FE9700"/>
				<stop  offset="1" style="stop-color:#FFE263"/>
			</linearGradient>
			<path class="st4" d="M47.9,59C54.8,48.6,61.8,40.6,66,31.4c8.8-19.1,22.6-26,43-22.7c9,1.4,18.5,0.2,29.9,0.2
				c-7.1,10-14.1,17.8-18.8,26.9C110.3,55,95.9,63,74.5,59.2C66.7,57.8,58.4,59,47.9,59z"/>
		</g>
	</g>
	
		<linearGradient id="SVGID_6_" gradientUnits="userSpaceOnUse" x1="51.0629" y1="13.4561" x2="197.8628" y2="13.4561" gradientTransform="matrix(1 0 0 -1 0 244.7121)">
		<stop  offset="0" style="stop-color:#FE9700"/>
		<stop  offset="0.2098" style="stop-color:#FCB246"/>
		<stop  offset="0.4197" style="stop-color:#FACA85"/>
		<stop  offset="0.6107" style="stop-color:#F9DEB7"/>
		<stop  offset="0.7772" style="stop-color:#F8EBDA"/>
		<stop  offset="0.9126" style="stop-color:#F7F4F0"/>
		<stop  offset="1" style="stop-color:#F7F7F8"/>
	</linearGradient>
	<path class="st5" d="M191.7,237.5H57.3c-3.4,0-6.2-2.8-6.2-6.2c0-3.4,2.8-6.2,6.2-6.2h134.4c3.4,0,6.2,2.8,6.2,6.2
		C197.9,234.7,195.1,237.5,191.7,237.5z"/>
</g>
</svg>
